<svg width="691" height="947" viewBox="0 0 691 947" fill="none" xmlns="http://www.w3.org/2000/svg">
<path fill-rule="evenodd" clip-rule="evenodd" d="M1167 471.009C1166.75 729.772 862.929 872.746 586.417 934.044C374.727 980.972 159.081 888.205 44.0816 719.942C-50.164 582.045 44.1589 422.747 145.695 289.197C259.021 140.141 391.746 -29.4108 587.334 5.40758C867.07 55.2058 1167.26 211.852 1167 471.009Z" fill="#E6EECF"/>
<g opacity="0.75">
<circle cx="2.7406" cy="317.645" r="2.5" fill="#13153A"/>
<circle cx="34.6892" cy="317.645" r="2.5" fill="#13153A"/>
<circle cx="66.6379" cy="317.645" r="2.5" fill="#13153A"/>
<circle cx="98.5865" cy="317.645" r="2.5" fill="#13153A"/>
<circle cx="130.535" cy="317.645" r="2.5" fill="#13153A"/>
<circle cx="162.484" cy="317.645" r="2.5" fill="#13153A"/>
<circle cx="194.432" cy="317.645" r="2.5" fill="#13153A"/>
<circle cx="226.381" cy="317.645" r="2.5" fill="#13153A"/>
<circle cx="258.33" cy="317.645" r="2.5" fill="#13153A"/>
<circle cx="290.278" cy="317.645" r="2.5" fill="#13153A"/>
<circle cx="322.227" cy="317.645" r="2.5" fill="#13153A"/>
<circle cx="354.175" cy="317.645" r="2.5" fill="#13153A"/>
<circle cx="386.124" cy="317.645" r="2.5" fill="#13153A"/>
<circle cx="418.073" cy="317.645" r="2.5" fill="#13153A"/>
<circle cx="450.021" cy="317.645" r="2.5" fill="#13153A"/>
<circle cx="481.97" cy="317.645" r="2.5" fill="#13153A"/>
<circle cx="513.918" cy="317.645" r="2.5" fill="#13153A"/>
<circle cx="545.867" cy="317.645" r="2.5" fill="#13153A"/>
<circle cx="577.816" cy="317.645" r="2.5" fill="#13153A"/>
<circle cx="609.764" cy="317.645" r="2.5" fill="#13153A"/>
<circle cx="2.7406" cy="343.204" r="2.5" fill="#13153A"/>
<circle cx="34.6892" cy="343.204" r="2.5" fill="#13153A"/>
<circle cx="66.6379" cy="343.204" r="2.5" fill="#13153A"/>
<circle cx="98.5865" cy="343.204" r="2.5" fill="#13153A"/>
<circle cx="130.535" cy="343.204" r="2.5" fill="#13153A"/>
<circle cx="162.484" cy="343.204" r="2.5" fill="#13153A"/>
<circle cx="194.432" cy="343.204" r="2.5" fill="#13153A"/>
<circle cx="226.381" cy="343.204" r="2.5" fill="#13153A"/>
<circle cx="258.33" cy="343.204" r="2.5" fill="#13153A"/>
<circle cx="290.278" cy="343.204" r="2.5" fill="#13153A"/>
<circle cx="322.227" cy="343.204" r="2.5" fill="#13153A"/>
<circle cx="354.175" cy="343.204" r="2.5" fill="#13153A"/>
<circle cx="386.124" cy="343.204" r="2.5" fill="#13153A"/>
<circle cx="418.073" cy="343.204" r="2.5" fill="#13153A"/>
<circle cx="450.021" cy="343.204" r="2.5" fill="#13153A"/>
<circle cx="481.97" cy="343.204" r="2.5" fill="#13153A"/>
<circle cx="513.918" cy="343.204" r="2.5" fill="#13153A"/>
<circle cx="545.867" cy="343.204" r="2.5" fill="#13153A"/>
<circle cx="577.816" cy="343.204" r="2.5" fill="#13153A"/>
<circle cx="609.764" cy="343.204" r="2.5" fill="#13153A"/>
<circle cx="2.7406" cy="368.763" r="2.5" fill="#13153A"/>
<circle cx="34.6892" cy="368.763" r="2.5" fill="#13153A"/>
<circle cx="66.6379" cy="368.763" r="2.5" fill="#13153A"/>
<circle cx="98.5865" cy="368.763" r="2.5" fill="#13153A"/>
<circle cx="130.535" cy="368.763" r="2.5" fill="#13153A"/>
<circle cx="162.484" cy="368.763" r="2.5" fill="#13153A"/>
<circle cx="194.432" cy="368.763" r="2.5" fill="#13153A"/>
<circle cx="226.381" cy="368.763" r="2.5" fill="#13153A"/>
<circle cx="258.33" cy="368.763" r="2.5" fill="#13153A"/>
<circle cx="290.278" cy="368.763" r="2.5" fill="#13153A"/>
<circle cx="322.227" cy="368.763" r="2.5" fill="#13153A"/>
<circle cx="354.175" cy="368.763" r="2.5" fill="#13153A"/>
<circle cx="386.124" cy="368.763" r="2.5" fill="#13153A"/>
<circle cx="418.073" cy="368.763" r="2.5" fill="#13153A"/>
<circle cx="450.021" cy="368.763" r="2.5" fill="#13153A"/>
<circle cx="481.97" cy="368.763" r="2.5" fill="#13153A"/>
<circle cx="513.918" cy="368.763" r="2.5" fill="#13153A"/>
<circle cx="545.867" cy="368.763" r="2.5" fill="#13153A"/>
<circle cx="577.816" cy="368.763" r="2.5" fill="#13153A"/>
<circle cx="609.764" cy="368.763" r="2.5" fill="#13153A"/>
<circle cx="2.7406" cy="394.322" r="2.5" fill="#13153A"/>
<circle cx="34.6892" cy="394.322" r="2.5" fill="#13153A"/>
<circle cx="66.6379" cy="394.322" r="2.5" fill="#13153A"/>
<circle cx="98.5865" cy="394.322" r="2.5" fill="#13153A"/>
<circle cx="130.535" cy="394.322" r="2.5" fill="#13153A"/>
<circle cx="162.484" cy="394.322" r="2.5" fill="#13153A"/>
<circle cx="194.432" cy="394.322" r="2.5" fill="#13153A"/>
<circle cx="226.381" cy="394.322" r="2.5" fill="#13153A"/>
<circle cx="258.33" cy="394.322" r="2.5" fill="#13153A"/>
<circle cx="290.278" cy="394.322" r="2.5" fill="#13153A"/>
<circle cx="322.227" cy="394.322" r="2.5" fill="#13153A"/>
<circle cx="354.175" cy="394.322" r="2.5" fill="#13153A"/>
<circle cx="386.124" cy="394.322" r="2.5" fill="#13153A"/>
<circle cx="418.073" cy="394.322" r="2.5" fill="#13153A"/>
<circle cx="450.021" cy="394.322" r="2.5" fill="#13153A"/>
<circle cx="481.97" cy="394.322" r="2.5" fill="#13153A"/>
<circle cx="513.918" cy="394.322" r="2.5" fill="#13153A"/>
<circle cx="545.867" cy="394.322" r="2.5" fill="#13153A"/>
<circle cx="577.816" cy="394.322" r="2.5" fill="#13153A"/>
<circle cx="609.764" cy="394.322" r="2.5" fill="#13153A"/>
<circle cx="2.7406" cy="419.882" r="2.5" fill="#13153A"/>
<circle cx="34.6892" cy="419.882" r="2.5" fill="#13153A"/>
<circle cx="66.6379" cy="419.882" r="2.5" fill="#13153A"/>
<circle cx="98.5865" cy="419.882" r="2.5" fill="#13153A"/>
<circle cx="130.535" cy="419.882" r="2.5" fill="#13153A"/>
<circle cx="162.484" cy="419.882" r="2.5" fill="#13153A"/>
<circle cx="194.432" cy="419.882" r="2.5" fill="#13153A"/>
<circle cx="226.381" cy="419.882" r="2.5" fill="#13153A"/>
<circle cx="258.33" cy="419.882" r="2.5" fill="#13153A"/>
<circle cx="290.278" cy="419.882" r="2.5" fill="#13153A"/>
<circle cx="322.227" cy="419.882" r="2.5" fill="#13153A"/>
<circle cx="354.175" cy="419.882" r="2.5" fill="#13153A"/>
<circle cx="386.124" cy="419.882" r="2.5" fill="#13153A"/>
<circle cx="418.073" cy="419.882" r="2.5" fill="#13153A"/>
<circle cx="450.021" cy="419.882" r="2.5" fill="#13153A"/>
<circle cx="481.97" cy="419.882" r="2.5" fill="#13153A"/>
<circle cx="513.918" cy="419.882" r="2.5" fill="#13153A"/>
<circle cx="545.867" cy="419.882" r="2.5" fill="#13153A"/>
<circle cx="577.816" cy="419.882" r="2.5" fill="#13153A"/>
<circle cx="609.764" cy="419.882" r="2.5" fill="#13153A"/>
<circle cx="2.7406" cy="445.441" r="2.5" fill="#13153A"/>
<circle cx="34.6892" cy="445.441" r="2.5" fill="#13153A"/>
<circle cx="66.6379" cy="445.441" r="2.5" fill="#13153A"/>
<circle cx="98.5865" cy="445.441" r="2.5" fill="#13153A"/>
<circle cx="130.535" cy="445.441" r="2.5" fill="#13153A"/>
<circle cx="162.484" cy="445.441" r="2.5" fill="#13153A"/>
<circle cx="194.432" cy="445.441" r="2.5" fill="#13153A"/>
<circle cx="226.381" cy="445.441" r="2.5" fill="#13153A"/>
<circle cx="258.33" cy="445.441" r="2.5" fill="#13153A"/>
<circle cx="290.278" cy="445.441" r="2.5" fill="#13153A"/>
<circle cx="322.227" cy="445.441" r="2.5" fill="#13153A"/>
<circle cx="354.175" cy="445.441" r="2.5" fill="#13153A"/>
<circle cx="386.124" cy="445.441" r="2.5" fill="#13153A"/>
<circle cx="418.073" cy="445.441" r="2.5" fill="#13153A"/>
<circle cx="450.021" cy="445.441" r="2.5" fill="#13153A"/>
<circle cx="481.97" cy="445.441" r="2.5" fill="#13153A"/>
<circle cx="513.918" cy="445.441" r="2.5" fill="#13153A"/>
<circle cx="545.867" cy="445.441" r="2.5" fill="#13153A"/>
<circle cx="577.816" cy="445.441" r="2.5" fill="#13153A"/>
<circle cx="609.764" cy="445.441" r="2.5" fill="#13153A"/>
<circle cx="2.7406" cy="471" r="2.5" fill="#13153A"/>
<circle cx="34.6892" cy="471" r="2.5" fill="#13153A"/>
<circle cx="66.6379" cy="471" r="2.5" fill="#13153A"/>
<circle cx="98.5865" cy="471" r="2.5" fill="#13153A"/>
<circle cx="130.535" cy="471" r="2.5" fill="#13153A"/>
<circle cx="162.484" cy="471" r="2.5" fill="#13153A"/>
<circle cx="194.432" cy="471" r="2.5" fill="#13153A"/>
<circle cx="226.381" cy="471" r="2.5" fill="#13153A"/>
<circle cx="258.33" cy="471" r="2.5" fill="#13153A"/>
<circle cx="290.278" cy="471" r="2.5" fill="#13153A"/>
<circle cx="322.227" cy="471" r="2.5" fill="#13153A"/>
<circle cx="354.175" cy="471" r="2.5" fill="#13153A"/>
<circle cx="386.124" cy="471" r="2.5" fill="#13153A"/>
<circle cx="418.073" cy="471" r="2.5" fill="#13153A"/>
<circle cx="450.021" cy="471" r="2.5" fill="#13153A"/>
<circle cx="481.97" cy="471" r="2.5" fill="#13153A"/>
<circle cx="513.918" cy="471" r="2.5" fill="#13153A"/>
<circle cx="545.867" cy="471" r="2.5" fill="#13153A"/>
<circle cx="577.816" cy="471" r="2.5" fill="#13153A"/>
<circle cx="609.764" cy="471" r="2.5" fill="#13153A"/>
<circle cx="2.7406" cy="496.559" r="2.5" fill="#13153A"/>
<circle cx="34.6892" cy="496.559" r="2.5" fill="#13153A"/>
<circle cx="66.6379" cy="496.559" r="2.5" fill="#13153A"/>
<circle cx="98.5865" cy="496.559" r="2.5" fill="#13153A"/>
<circle cx="130.535" cy="496.559" r="2.5" fill="#13153A"/>
<circle cx="162.484" cy="496.559" r="2.5" fill="#13153A"/>
<circle cx="194.432" cy="496.559" r="2.5" fill="#13153A"/>
<circle cx="226.381" cy="496.559" r="2.5" fill="#13153A"/>
<circle cx="258.33" cy="496.559" r="2.5" fill="#13153A"/>
<circle cx="290.278" cy="496.559" r="2.5" fill="#13153A"/>
<circle cx="322.227" cy="496.559" r="2.5" fill="#13153A"/>
<circle cx="354.175" cy="496.559" r="2.5" fill="#13153A"/>
<circle cx="386.124" cy="496.559" r="2.5" fill="#13153A"/>
<circle cx="418.073" cy="496.559" r="2.5" fill="#13153A"/>
<circle cx="450.021" cy="496.559" r="2.5" fill="#13153A"/>
<circle cx="481.97" cy="496.559" r="2.5" fill="#13153A"/>
<circle cx="513.918" cy="496.559" r="2.5" fill="#13153A"/>
<circle cx="545.867" cy="496.559" r="2.5" fill="#13153A"/>
<circle cx="577.816" cy="496.559" r="2.5" fill="#13153A"/>
<circle cx="609.764" cy="496.559" r="2.5" fill="#13153A"/>
<circle cx="2.7406" cy="522.118" r="2.5" fill="#13153A"/>
<circle cx="34.6892" cy="522.118" r="2.5" fill="#13153A"/>
<circle cx="66.6379" cy="522.118" r="2.5" fill="#13153A"/>
<circle cx="98.5865" cy="522.118" r="2.5" fill="#13153A"/>
<circle cx="130.535" cy="522.118" r="2.5" fill="#13153A"/>
<circle cx="162.484" cy="522.118" r="2.5" fill="#13153A"/>
<circle cx="194.432" cy="522.118" r="2.5" fill="#13153A"/>
<circle cx="226.381" cy="522.118" r="2.5" fill="#13153A"/>
<circle cx="258.33" cy="522.118" r="2.5" fill="#13153A"/>
<circle cx="290.278" cy="522.118" r="2.5" fill="#13153A"/>
<circle cx="322.227" cy="522.118" r="2.5" fill="#13153A"/>
<circle cx="354.175" cy="522.118" r="2.5" fill="#13153A"/>
<circle cx="386.124" cy="522.118" r="2.5" fill="#13153A"/>
<circle cx="418.073" cy="522.118" r="2.5" fill="#13153A"/>
<circle cx="450.021" cy="522.118" r="2.5" fill="#13153A"/>
<circle cx="481.97" cy="522.118" r="2.5" fill="#13153A"/>
<circle cx="513.918" cy="522.118" r="2.5" fill="#13153A"/>
<circle cx="545.867" cy="522.118" r="2.5" fill="#13153A"/>
<circle cx="577.816" cy="522.118" r="2.5" fill="#13153A"/>
<circle cx="609.764" cy="522.118" r="2.5" fill="#13153A"/>
<circle cx="2.7406" cy="547.677" r="2.5" fill="#13153A"/>
<circle cx="34.6892" cy="547.677" r="2.5" fill="#13153A"/>
<circle cx="66.6379" cy="547.677" r="2.5" fill="#13153A"/>
<circle cx="98.5865" cy="547.677" r="2.5" fill="#13153A"/>
<circle cx="130.535" cy="547.677" r="2.5" fill="#13153A"/>
<circle cx="162.484" cy="547.677" r="2.5" fill="#13153A"/>
<circle cx="194.432" cy="547.677" r="2.5" fill="#13153A"/>
<circle cx="226.381" cy="547.677" r="2.5" fill="#13153A"/>
<circle cx="258.33" cy="547.677" r="2.5" fill="#13153A"/>
<circle cx="290.278" cy="547.677" r="2.5" fill="#13153A"/>
<circle cx="322.227" cy="547.677" r="2.5" fill="#13153A"/>
<circle cx="354.175" cy="547.677" r="2.5" fill="#13153A"/>
<circle cx="386.124" cy="547.677" r="2.5" fill="#13153A"/>
<circle cx="418.073" cy="547.677" r="2.5" fill="#13153A"/>
<circle cx="450.021" cy="547.677" r="2.5" fill="#13153A"/>
<circle cx="481.97" cy="547.677" r="2.5" fill="#13153A"/>
<circle cx="513.918" cy="547.677" r="2.5" fill="#13153A"/>
<circle cx="545.867" cy="547.677" r="2.5" fill="#13153A"/>
<circle cx="577.816" cy="547.677" r="2.5" fill="#13153A"/>
<circle cx="609.764" cy="547.677" r="2.5" fill="#13153A"/>
<circle cx="2.7406" cy="573.236" r="2.5" fill="#13153A"/>
<circle cx="34.6892" cy="573.236" r="2.5" fill="#13153A"/>
<circle cx="66.6379" cy="573.236" r="2.5" fill="#13153A"/>
<circle cx="98.5865" cy="573.236" r="2.5" fill="#13153A"/>
<circle cx="130.535" cy="573.236" r="2.5" fill="#13153A"/>
<circle cx="162.484" cy="573.236" r="2.5" fill="#13153A"/>
<circle cx="194.432" cy="573.236" r="2.5" fill="#13153A"/>
<circle cx="226.381" cy="573.236" r="2.5" fill="#13153A"/>
<circle cx="258.33" cy="573.236" r="2.5" fill="#13153A"/>
<circle cx="290.278" cy="573.236" r="2.5" fill="#13153A"/>
<circle cx="322.227" cy="573.236" r="2.5" fill="#13153A"/>
<circle cx="354.175" cy="573.236" r="2.5" fill="#13153A"/>
<circle cx="386.124" cy="573.236" r="2.5" fill="#13153A"/>
<circle cx="418.073" cy="573.236" r="2.5" fill="#13153A"/>
<circle cx="450.021" cy="573.236" r="2.5" fill="#13153A"/>
<circle cx="481.97" cy="573.236" r="2.5" fill="#13153A"/>
<circle cx="513.918" cy="573.236" r="2.5" fill="#13153A"/>
<circle cx="545.867" cy="573.236" r="2.5" fill="#13153A"/>
<circle cx="577.816" cy="573.236" r="2.5" fill="#13153A"/>
<circle cx="609.764" cy="573.236" r="2.5" fill="#13153A"/>
<circle cx="2.7406" cy="598.795" r="2.5" fill="#13153A"/>
<circle cx="34.6892" cy="598.795" r="2.5" fill="#13153A"/>
<circle cx="66.6379" cy="598.795" r="2.5" fill="#13153A"/>
<circle cx="98.5865" cy="598.795" r="2.5" fill="#13153A"/>
<circle cx="130.535" cy="598.795" r="2.5" fill="#13153A"/>
<circle cx="162.484" cy="598.795" r="2.5" fill="#13153A"/>
<circle cx="194.432" cy="598.795" r="2.5" fill="#13153A"/>
<circle cx="226.381" cy="598.795" r="2.5" fill="#13153A"/>
<circle cx="258.33" cy="598.795" r="2.5" fill="#13153A"/>
<circle cx="290.278" cy="598.795" r="2.5" fill="#13153A"/>
<circle cx="322.227" cy="598.795" r="2.5" fill="#13153A"/>
<circle cx="354.175" cy="598.795" r="2.5" fill="#13153A"/>
<circle cx="386.124" cy="598.795" r="2.5" fill="#13153A"/>
<circle cx="418.073" cy="598.795" r="2.5" fill="#13153A"/>
<circle cx="450.021" cy="598.795" r="2.5" fill="#13153A"/>
<circle cx="481.97" cy="598.795" r="2.5" fill="#13153A"/>
<circle cx="513.918" cy="598.795" r="2.5" fill="#13153A"/>
<circle cx="545.867" cy="598.795" r="2.5" fill="#13153A"/>
<circle cx="577.816" cy="598.795" r="2.5" fill="#13153A"/>
<circle cx="609.764" cy="598.795" r="2.5" fill="#13153A"/>
<circle cx="2.7406" cy="624.354" r="2.5" fill="#13153A"/>
<circle cx="34.6892" cy="624.354" r="2.5" fill="#13153A"/>
<circle cx="66.6379" cy="624.354" r="2.5" fill="#13153A"/>
<circle cx="98.5865" cy="624.354" r="2.5" fill="#13153A"/>
<circle cx="130.535" cy="624.354" r="2.5" fill="#13153A"/>
<circle cx="162.484" cy="624.354" r="2.5" fill="#13153A"/>
<circle cx="194.432" cy="624.354" r="2.5" fill="#13153A"/>
<circle cx="226.381" cy="624.354" r="2.5" fill="#13153A"/>
<circle cx="258.33" cy="624.354" r="2.5" fill="#13153A"/>
<circle cx="290.278" cy="624.354" r="2.5" fill="#13153A"/>
<circle cx="322.227" cy="624.354" r="2.5" fill="#13153A"/>
<circle cx="354.175" cy="624.354" r="2.5" fill="#13153A"/>
<circle cx="386.124" cy="624.354" r="2.5" fill="#13153A"/>
<circle cx="418.073" cy="624.354" r="2.5" fill="#13153A"/>
<circle cx="450.021" cy="624.354" r="2.5" fill="#13153A"/>
<circle cx="481.97" cy="624.354" r="2.5" fill="#13153A"/>
<circle cx="513.918" cy="624.354" r="2.5" fill="#13153A"/>
<circle cx="545.867" cy="624.354" r="2.5" fill="#13153A"/>
<circle cx="577.816" cy="624.354" r="2.5" fill="#13153A"/>
<circle cx="609.764" cy="624.354" r="2.5" fill="#13153A"/>
<circle cx="2.7406" cy="649.914" r="2.5" fill="#13153A"/>
<circle cx="34.6892" cy="649.914" r="2.5" fill="#13153A"/>
<circle cx="66.6379" cy="649.914" r="2.5" fill="#13153A"/>
<circle cx="98.5865" cy="649.914" r="2.5" fill="#13153A"/>
<circle cx="130.535" cy="649.914" r="2.5" fill="#13153A"/>
<circle cx="162.484" cy="649.914" r="2.5" fill="#13153A"/>
<circle cx="194.432" cy="649.914" r="2.5" fill="#13153A"/>
<circle cx="226.381" cy="649.914" r="2.5" fill="#13153A"/>
<circle cx="258.33" cy="649.914" r="2.5" fill="#13153A"/>
<circle cx="290.278" cy="649.914" r="2.5" fill="#13153A"/>
<circle cx="322.227" cy="649.914" r="2.5" fill="#13153A"/>
<circle cx="354.175" cy="649.914" r="2.5" fill="#13153A"/>
<circle cx="386.124" cy="649.914" r="2.5" fill="#13153A"/>
<circle cx="418.073" cy="649.914" r="2.5" fill="#13153A"/>
<circle cx="450.021" cy="649.914" r="2.5" fill="#13153A"/>
<circle cx="481.97" cy="649.914" r="2.5" fill="#13153A"/>
<circle cx="513.918" cy="649.914" r="2.5" fill="#13153A"/>
<circle cx="545.867" cy="649.914" r="2.5" fill="#13153A"/>
<circle cx="577.816" cy="649.914" r="2.5" fill="#13153A"/>
<circle cx="609.764" cy="649.914" r="2.5" fill="#13153A"/>
</g>
</svg>
