<svg width="1053" height="1539" viewBox="0 0 1053 1539" fill="none" xmlns="http://www.w3.org/2000/svg">
<path fill-rule="evenodd" clip-rule="evenodd" d="M-504.909 1095.46C-671.367 851.721 -435.355 492.51 -176.204 230.361C22.194 29.667 314.877 -42.4698 547.503 30.8685C738.146 90.9712 738.916 310.646 715.305 511.42C688.951 735.506 654.852 993.227 421.172 1105.07C86.9552 1265.04 -338.198 1339.57 -504.909 1095.46Z" fill="#E6EECF"/>
<g opacity="0.75">
<circle cx="662.573" cy="825.99" r="2.85159" transform="rotate(-180 662.573 825.99)" fill="#13153A"/>
<circle cx="626.131" cy="825.99" r="2.85159" transform="rotate(-180 626.131 825.99)" fill="#13153A"/>
<circle cx="589.689" cy="825.99" r="2.85159" transform="rotate(-180 589.689 825.99)" fill="#13153A"/>
<circle cx="553.247" cy="825.99" r="2.85159" transform="rotate(-180 553.247 825.99)" fill="#13153A"/>
<circle cx="516.806" cy="825.99" r="2.85159" transform="rotate(-180 516.806 825.99)" fill="#13153A"/>
<circle cx="480.364" cy="825.99" r="2.85159" transform="rotate(-180 480.364 825.99)" fill="#13153A"/>
<circle cx="443.922" cy="825.99" r="2.85159" transform="rotate(-180 443.922 825.99)" fill="#13153A"/>
<circle cx="407.481" cy="825.99" r="2.85159" transform="rotate(-180 407.481 825.99)" fill="#13153A"/>
<circle cx="371.039" cy="825.99" r="2.85159" transform="rotate(-180 371.039 825.99)" fill="#13153A"/>
<circle cx="334.597" cy="825.99" r="2.85159" transform="rotate(-180 334.597 825.99)" fill="#13153A"/>
<circle cx="298.155" cy="825.99" r="2.85159" transform="rotate(-180 298.155 825.99)" fill="#13153A"/>
<circle cx="261.714" cy="825.99" r="2.85159" transform="rotate(-180 261.714 825.99)" fill="#13153A"/>
<circle cx="225.272" cy="825.99" r="2.85159" transform="rotate(-180 225.272 825.99)" fill="#13153A"/>
<circle cx="188.83" cy="825.99" r="2.85159" transform="rotate(-180 188.83 825.99)" fill="#13153A"/>
<circle cx="152.389" cy="825.99" r="2.85159" transform="rotate(-180 152.389 825.99)" fill="#13153A"/>
<circle cx="115.947" cy="825.99" r="2.85159" transform="rotate(-180 115.947 825.99)" fill="#13153A"/>
<circle cx="79.5052" cy="825.99" r="2.85159" transform="rotate(-180 79.5052 825.99)" fill="#13153A"/>
<circle cx="43.0634" cy="825.99" r="2.85159" transform="rotate(-180 43.0634 825.99)" fill="#13153A"/>
<circle cx="6.62174" cy="825.99" r="2.85159" transform="rotate(-180 6.62174 825.99)" fill="#13153A"/>
<circle cx="662.573" cy="796.836" r="2.85159" transform="rotate(-180 662.573 796.836)" fill="#13153A"/>
<circle cx="626.131" cy="796.836" r="2.85159" transform="rotate(-180 626.131 796.836)" fill="#13153A"/>
<circle cx="589.689" cy="796.836" r="2.85159" transform="rotate(-180 589.689 796.836)" fill="#13153A"/>
<circle cx="553.247" cy="796.836" r="2.85159" transform="rotate(-180 553.247 796.836)" fill="#13153A"/>
<circle cx="516.806" cy="796.836" r="2.85159" transform="rotate(-180 516.806 796.836)" fill="#13153A"/>
<circle cx="480.364" cy="796.836" r="2.85159" transform="rotate(-180 480.364 796.836)" fill="#13153A"/>
<circle cx="443.922" cy="796.836" r="2.85159" transform="rotate(-180 443.922 796.836)" fill="#13153A"/>
<circle cx="407.481" cy="796.836" r="2.85159" transform="rotate(-180 407.481 796.836)" fill="#13153A"/>
<circle cx="371.039" cy="796.836" r="2.85159" transform="rotate(-180 371.039 796.836)" fill="#13153A"/>
<circle cx="334.597" cy="796.836" r="2.85159" transform="rotate(-180 334.597 796.836)" fill="#13153A"/>
<circle cx="298.155" cy="796.836" r="2.85159" transform="rotate(-180 298.155 796.836)" fill="#13153A"/>
<circle cx="261.714" cy="796.836" r="2.85159" transform="rotate(-180 261.714 796.836)" fill="#13153A"/>
<circle cx="225.272" cy="796.836" r="2.85159" transform="rotate(-180 225.272 796.836)" fill="#13153A"/>
<circle cx="188.83" cy="796.836" r="2.85159" transform="rotate(-180 188.83 796.836)" fill="#13153A"/>
<circle cx="152.389" cy="796.836" r="2.85159" transform="rotate(-180 152.389 796.836)" fill="#13153A"/>
<circle cx="115.947" cy="796.836" r="2.85159" transform="rotate(-180 115.947 796.836)" fill="#13153A"/>
<circle cx="79.5052" cy="796.836" r="2.85159" transform="rotate(-180 79.5052 796.836)" fill="#13153A"/>
<circle cx="43.0634" cy="796.836" r="2.85159" transform="rotate(-180 43.0634 796.836)" fill="#13153A"/>
<circle cx="6.62174" cy="796.836" r="2.85159" transform="rotate(-180 6.62174 796.836)" fill="#13153A"/>
<circle cx="662.573" cy="767.683" r="2.85159" transform="rotate(-180 662.573 767.683)" fill="#13153A"/>
<circle cx="626.131" cy="767.683" r="2.85159" transform="rotate(-180 626.131 767.683)" fill="#13153A"/>
<circle cx="589.689" cy="767.683" r="2.85159" transform="rotate(-180 589.689 767.683)" fill="#13153A"/>
<circle cx="553.247" cy="767.683" r="2.85159" transform="rotate(-180 553.247 767.683)" fill="#13153A"/>
<circle cx="516.806" cy="767.683" r="2.85159" transform="rotate(-180 516.806 767.683)" fill="#13153A"/>
<circle cx="480.364" cy="767.683" r="2.85159" transform="rotate(-180 480.364 767.683)" fill="#13153A"/>
<circle cx="443.922" cy="767.683" r="2.85159" transform="rotate(-180 443.922 767.683)" fill="#13153A"/>
<circle cx="407.481" cy="767.683" r="2.85159" transform="rotate(-180 407.481 767.683)" fill="#13153A"/>
<circle cx="371.039" cy="767.683" r="2.85159" transform="rotate(-180 371.039 767.683)" fill="#13153A"/>
<circle cx="334.597" cy="767.683" r="2.85159" transform="rotate(-180 334.597 767.683)" fill="#13153A"/>
<circle cx="298.155" cy="767.683" r="2.85159" transform="rotate(-180 298.155 767.683)" fill="#13153A"/>
<circle cx="261.714" cy="767.683" r="2.85159" transform="rotate(-180 261.714 767.683)" fill="#13153A"/>
<circle cx="225.272" cy="767.683" r="2.85159" transform="rotate(-180 225.272 767.683)" fill="#13153A"/>
<circle cx="188.83" cy="767.683" r="2.85159" transform="rotate(-180 188.83 767.683)" fill="#13153A"/>
<circle cx="152.389" cy="767.683" r="2.85159" transform="rotate(-180 152.389 767.683)" fill="#13153A"/>
<circle cx="115.947" cy="767.683" r="2.85159" transform="rotate(-180 115.947 767.683)" fill="#13153A"/>
<circle cx="79.5052" cy="767.683" r="2.85159" transform="rotate(-180 79.5052 767.683)" fill="#13153A"/>
<circle cx="43.0634" cy="767.683" r="2.85159" transform="rotate(-180 43.0634 767.683)" fill="#13153A"/>
<circle cx="6.62174" cy="767.683" r="2.85159" transform="rotate(-180 6.62174 767.683)" fill="#13153A"/>
<circle cx="662.573" cy="738.529" r="2.85159" transform="rotate(-180 662.573 738.529)" fill="#13153A"/>
<circle cx="626.131" cy="738.529" r="2.85159" transform="rotate(-180 626.131 738.529)" fill="#13153A"/>
<circle cx="589.689" cy="738.529" r="2.85159" transform="rotate(-180 589.689 738.529)" fill="#13153A"/>
<circle cx="553.247" cy="738.529" r="2.85159" transform="rotate(-180 553.247 738.529)" fill="#13153A"/>
<circle cx="516.806" cy="738.529" r="2.85159" transform="rotate(-180 516.806 738.529)" fill="#13153A"/>
<circle cx="480.364" cy="738.529" r="2.85159" transform="rotate(-180 480.364 738.529)" fill="#13153A"/>
<circle cx="443.922" cy="738.529" r="2.85159" transform="rotate(-180 443.922 738.529)" fill="#13153A"/>
<circle cx="407.481" cy="738.529" r="2.85159" transform="rotate(-180 407.481 738.529)" fill="#13153A"/>
<circle cx="371.039" cy="738.529" r="2.85159" transform="rotate(-180 371.039 738.529)" fill="#13153A"/>
<circle cx="334.597" cy="738.529" r="2.85159" transform="rotate(-180 334.597 738.529)" fill="#13153A"/>
<circle cx="298.155" cy="738.529" r="2.85159" transform="rotate(-180 298.155 738.529)" fill="#13153A"/>
<circle cx="261.714" cy="738.529" r="2.85159" transform="rotate(-180 261.714 738.529)" fill="#13153A"/>
<circle cx="225.272" cy="738.529" r="2.85159" transform="rotate(-180 225.272 738.529)" fill="#13153A"/>
<circle cx="188.83" cy="738.529" r="2.85159" transform="rotate(-180 188.83 738.529)" fill="#13153A"/>
<circle cx="152.389" cy="738.529" r="2.85159" transform="rotate(-180 152.389 738.529)" fill="#13153A"/>
<circle cx="115.947" cy="738.529" r="2.85159" transform="rotate(-180 115.947 738.529)" fill="#13153A"/>
<circle cx="79.5052" cy="738.529" r="2.85159" transform="rotate(-180 79.5052 738.529)" fill="#13153A"/>
<circle cx="43.0635" cy="738.529" r="2.85159" transform="rotate(-180 43.0635 738.529)" fill="#13153A"/>
<circle cx="6.6218" cy="738.529" r="2.85159" transform="rotate(-180 6.6218 738.529)" fill="#13153A"/>
<circle cx="662.573" cy="709.375" r="2.85159" transform="rotate(-180 662.573 709.375)" fill="#13153A"/>
<circle cx="626.131" cy="709.375" r="2.85159" transform="rotate(-180 626.131 709.375)" fill="#13153A"/>
<circle cx="589.689" cy="709.375" r="2.85159" transform="rotate(-180 589.689 709.375)" fill="#13153A"/>
<circle cx="553.247" cy="709.375" r="2.85159" transform="rotate(-180 553.247 709.375)" fill="#13153A"/>
<circle cx="516.806" cy="709.375" r="2.85159" transform="rotate(-180 516.806 709.375)" fill="#13153A"/>
<circle cx="480.364" cy="709.375" r="2.85159" transform="rotate(-180 480.364 709.375)" fill="#13153A"/>
<circle cx="443.922" cy="709.375" r="2.85159" transform="rotate(-180 443.922 709.375)" fill="#13153A"/>
<circle cx="407.481" cy="709.375" r="2.85159" transform="rotate(-180 407.481 709.375)" fill="#13153A"/>
<circle cx="371.039" cy="709.375" r="2.85159" transform="rotate(-180 371.039 709.375)" fill="#13153A"/>
<circle cx="334.597" cy="709.375" r="2.85159" transform="rotate(-180 334.597 709.375)" fill="#13153A"/>
<circle cx="298.155" cy="709.375" r="2.85159" transform="rotate(-180 298.155 709.375)" fill="#13153A"/>
<circle cx="261.714" cy="709.375" r="2.85159" transform="rotate(-180 261.714 709.375)" fill="#13153A"/>
<circle cx="225.272" cy="709.375" r="2.85159" transform="rotate(-180 225.272 709.375)" fill="#13153A"/>
<circle cx="188.83" cy="709.375" r="2.85159" transform="rotate(-180 188.83 709.375)" fill="#13153A"/>
<circle cx="152.389" cy="709.375" r="2.85159" transform="rotate(-180 152.389 709.375)" fill="#13153A"/>
<circle cx="115.947" cy="709.375" r="2.85159" transform="rotate(-180 115.947 709.375)" fill="#13153A"/>
<circle cx="79.5052" cy="709.375" r="2.85159" transform="rotate(-180 79.5052 709.375)" fill="#13153A"/>
<circle cx="43.0635" cy="709.375" r="2.85159" transform="rotate(-180 43.0635 709.375)" fill="#13153A"/>
<circle cx="6.6218" cy="709.375" r="2.85159" transform="rotate(-180 6.6218 709.375)" fill="#13153A"/>
<circle cx="662.573" cy="680.222" r="2.85159" transform="rotate(-180 662.573 680.222)" fill="#13153A"/>
<circle cx="626.131" cy="680.222" r="2.85159" transform="rotate(-180 626.131 680.222)" fill="#13153A"/>
<circle cx="589.689" cy="680.222" r="2.85159" transform="rotate(-180 589.689 680.222)" fill="#13153A"/>
<circle cx="553.247" cy="680.222" r="2.85159" transform="rotate(-180 553.247 680.222)" fill="#13153A"/>
<circle cx="516.806" cy="680.222" r="2.85159" transform="rotate(-180 516.806 680.222)" fill="#13153A"/>
<circle cx="480.364" cy="680.222" r="2.85159" transform="rotate(-180 480.364 680.222)" fill="#13153A"/>
<circle cx="443.922" cy="680.222" r="2.85159" transform="rotate(-180 443.922 680.222)" fill="#13153A"/>
<circle cx="407.481" cy="680.222" r="2.85159" transform="rotate(-180 407.481 680.222)" fill="#13153A"/>
<circle cx="371.039" cy="680.222" r="2.85159" transform="rotate(-180 371.039 680.222)" fill="#13153A"/>
<circle cx="334.597" cy="680.222" r="2.85159" transform="rotate(-180 334.597 680.222)" fill="#13153A"/>
<circle cx="298.155" cy="680.222" r="2.85159" transform="rotate(-180 298.155 680.222)" fill="#13153A"/>
<circle cx="261.714" cy="680.222" r="2.85159" transform="rotate(-180 261.714 680.222)" fill="#13153A"/>
<circle cx="225.272" cy="680.222" r="2.85159" transform="rotate(-180 225.272 680.222)" fill="#13153A"/>
<circle cx="188.83" cy="680.222" r="2.85159" transform="rotate(-180 188.83 680.222)" fill="#13153A"/>
<circle cx="152.389" cy="680.222" r="2.85159" transform="rotate(-180 152.389 680.222)" fill="#13153A"/>
<circle cx="115.947" cy="680.222" r="2.85159" transform="rotate(-180 115.947 680.222)" fill="#13153A"/>
<circle cx="79.5052" cy="680.222" r="2.85159" transform="rotate(-180 79.5052 680.222)" fill="#13153A"/>
<circle cx="43.0635" cy="680.222" r="2.85159" transform="rotate(-180 43.0635 680.222)" fill="#13153A"/>
<circle cx="6.6218" cy="680.222" r="2.85159" transform="rotate(-180 6.6218 680.222)" fill="#13153A"/>
<circle cx="662.573" cy="651.068" r="2.85159" transform="rotate(-180 662.573 651.068)" fill="#13153A"/>
<circle cx="626.131" cy="651.068" r="2.85159" transform="rotate(-180 626.131 651.068)" fill="#13153A"/>
<circle cx="589.689" cy="651.068" r="2.85159" transform="rotate(-180 589.689 651.068)" fill="#13153A"/>
<circle cx="553.247" cy="651.068" r="2.85159" transform="rotate(-180 553.247 651.068)" fill="#13153A"/>
<circle cx="516.806" cy="651.068" r="2.85159" transform="rotate(-180 516.806 651.068)" fill="#13153A"/>
<circle cx="480.364" cy="651.068" r="2.85159" transform="rotate(-180 480.364 651.068)" fill="#13153A"/>
<circle cx="443.922" cy="651.068" r="2.85159" transform="rotate(-180 443.922 651.068)" fill="#13153A"/>
<circle cx="407.481" cy="651.068" r="2.85159" transform="rotate(-180 407.481 651.068)" fill="#13153A"/>
<circle cx="371.039" cy="651.068" r="2.85159" transform="rotate(-180 371.039 651.068)" fill="#13153A"/>
<circle cx="334.597" cy="651.068" r="2.85159" transform="rotate(-180 334.597 651.068)" fill="#13153A"/>
<circle cx="298.155" cy="651.068" r="2.85159" transform="rotate(-180 298.155 651.068)" fill="#13153A"/>
<circle cx="261.714" cy="651.068" r="2.85159" transform="rotate(-180 261.714 651.068)" fill="#13153A"/>
<circle cx="225.272" cy="651.068" r="2.85159" transform="rotate(-180 225.272 651.068)" fill="#13153A"/>
<circle cx="188.83" cy="651.068" r="2.85159" transform="rotate(-180 188.83 651.068)" fill="#13153A"/>
<circle cx="152.389" cy="651.068" r="2.85159" transform="rotate(-180 152.389 651.068)" fill="#13153A"/>
<circle cx="115.947" cy="651.068" r="2.85159" transform="rotate(-180 115.947 651.068)" fill="#13153A"/>
<circle cx="79.5052" cy="651.068" r="2.85159" transform="rotate(-180 79.5052 651.068)" fill="#13153A"/>
<circle cx="43.0634" cy="651.068" r="2.85159" transform="rotate(-180 43.0634 651.068)" fill="#13153A"/>
<circle cx="6.62174" cy="651.068" r="2.85159" transform="rotate(-180 6.62174 651.068)" fill="#13153A"/>
<circle cx="662.573" cy="621.914" r="2.85159" transform="rotate(-180 662.573 621.914)" fill="#13153A"/>
<circle cx="626.131" cy="621.915" r="2.85159" transform="rotate(-180 626.131 621.915)" fill="#13153A"/>
<circle cx="589.689" cy="621.915" r="2.85159" transform="rotate(-180 589.689 621.915)" fill="#13153A"/>
<circle cx="553.247" cy="621.915" r="2.85159" transform="rotate(-180 553.247 621.915)" fill="#13153A"/>
<circle cx="516.806" cy="621.915" r="2.85159" transform="rotate(-180 516.806 621.915)" fill="#13153A"/>
<circle cx="480.364" cy="621.915" r="2.85159" transform="rotate(-180 480.364 621.915)" fill="#13153A"/>
<circle cx="443.922" cy="621.915" r="2.85159" transform="rotate(-180 443.922 621.915)" fill="#13153A"/>
<circle cx="407.481" cy="621.915" r="2.85159" transform="rotate(-180 407.481 621.915)" fill="#13153A"/>
<circle cx="371.039" cy="621.915" r="2.85159" transform="rotate(-180 371.039 621.915)" fill="#13153A"/>
<circle cx="334.597" cy="621.915" r="2.85159" transform="rotate(-180 334.597 621.915)" fill="#13153A"/>
<circle cx="298.155" cy="621.915" r="2.85159" transform="rotate(-180 298.155 621.915)" fill="#13153A"/>
<circle cx="261.714" cy="621.915" r="2.85159" transform="rotate(-180 261.714 621.915)" fill="#13153A"/>
<circle cx="225.272" cy="621.915" r="2.85159" transform="rotate(-180 225.272 621.915)" fill="#13153A"/>
<circle cx="188.83" cy="621.915" r="2.85159" transform="rotate(-180 188.83 621.915)" fill="#13153A"/>
<circle cx="152.389" cy="621.915" r="2.85159" transform="rotate(-180 152.389 621.915)" fill="#13153A"/>
<circle cx="115.947" cy="621.915" r="2.85159" transform="rotate(-180 115.947 621.915)" fill="#13153A"/>
<circle cx="79.5052" cy="621.915" r="2.85159" transform="rotate(-180 79.5052 621.915)" fill="#13153A"/>
<circle cx="43.0634" cy="621.915" r="2.85159" transform="rotate(-180 43.0634 621.915)" fill="#13153A"/>
<circle cx="6.62174" cy="621.915" r="2.85159" transform="rotate(-180 6.62174 621.915)" fill="#13153A"/>
<circle cx="662.573" cy="592.761" r="2.85159" transform="rotate(-180 662.573 592.761)" fill="#13153A"/>
<circle cx="626.131" cy="592.761" r="2.85159" transform="rotate(-180 626.131 592.761)" fill="#13153A"/>
<circle cx="589.689" cy="592.761" r="2.85159" transform="rotate(-180 589.689 592.761)" fill="#13153A"/>
<circle cx="553.247" cy="592.761" r="2.85159" transform="rotate(-180 553.247 592.761)" fill="#13153A"/>
<circle cx="516.806" cy="592.761" r="2.85159" transform="rotate(-180 516.806 592.761)" fill="#13153A"/>
<circle cx="480.364" cy="592.761" r="2.85159" transform="rotate(-180 480.364 592.761)" fill="#13153A"/>
<circle cx="443.922" cy="592.761" r="2.85159" transform="rotate(-180 443.922 592.761)" fill="#13153A"/>
<circle cx="407.481" cy="592.761" r="2.85159" transform="rotate(-180 407.481 592.761)" fill="#13153A"/>
<circle cx="371.039" cy="592.761" r="2.85159" transform="rotate(-180 371.039 592.761)" fill="#13153A"/>
<circle cx="334.597" cy="592.761" r="2.85159" transform="rotate(-180 334.597 592.761)" fill="#13153A"/>
<circle cx="298.155" cy="592.761" r="2.85159" transform="rotate(-180 298.155 592.761)" fill="#13153A"/>
<circle cx="261.714" cy="592.761" r="2.85159" transform="rotate(-180 261.714 592.761)" fill="#13153A"/>
<circle cx="225.272" cy="592.761" r="2.85159" transform="rotate(-180 225.272 592.761)" fill="#13153A"/>
<circle cx="188.83" cy="592.761" r="2.85159" transform="rotate(-180 188.83 592.761)" fill="#13153A"/>
<circle cx="152.389" cy="592.761" r="2.85159" transform="rotate(-180 152.389 592.761)" fill="#13153A"/>
<circle cx="115.947" cy="592.761" r="2.85159" transform="rotate(-180 115.947 592.761)" fill="#13153A"/>
<circle cx="79.5052" cy="592.761" r="2.85159" transform="rotate(-180 79.5052 592.761)" fill="#13153A"/>
<circle cx="43.0634" cy="592.761" r="2.85159" transform="rotate(-180 43.0634 592.761)" fill="#13153A"/>
<circle cx="6.62174" cy="592.761" r="2.85159" transform="rotate(-180 6.62174 592.761)" fill="#13153A"/>
<circle cx="662.573" cy="563.607" r="2.85159" transform="rotate(-180 662.573 563.607)" fill="#13153A"/>
<circle cx="626.131" cy="563.607" r="2.85159" transform="rotate(-180 626.131 563.607)" fill="#13153A"/>
<circle cx="589.689" cy="563.607" r="2.85159" transform="rotate(-180 589.689 563.607)" fill="#13153A"/>
<circle cx="553.247" cy="563.607" r="2.85159" transform="rotate(-180 553.247 563.607)" fill="#13153A"/>
<circle cx="516.806" cy="563.607" r="2.85159" transform="rotate(-180 516.806 563.607)" fill="#13153A"/>
<circle cx="480.364" cy="563.607" r="2.85159" transform="rotate(-180 480.364 563.607)" fill="#13153A"/>
<circle cx="443.922" cy="563.607" r="2.85159" transform="rotate(-180 443.922 563.607)" fill="#13153A"/>
<circle cx="407.481" cy="563.607" r="2.85159" transform="rotate(-180 407.481 563.607)" fill="#13153A"/>
<circle cx="371.039" cy="563.607" r="2.85159" transform="rotate(-180 371.039 563.607)" fill="#13153A"/>
<circle cx="334.597" cy="563.607" r="2.85159" transform="rotate(-180 334.597 563.607)" fill="#13153A"/>
<circle cx="298.155" cy="563.607" r="2.85159" transform="rotate(-180 298.155 563.607)" fill="#13153A"/>
<circle cx="261.714" cy="563.607" r="2.85159" transform="rotate(-180 261.714 563.607)" fill="#13153A"/>
<circle cx="225.272" cy="563.607" r="2.85159" transform="rotate(-180 225.272 563.607)" fill="#13153A"/>
<circle cx="188.83" cy="563.607" r="2.85159" transform="rotate(-180 188.83 563.607)" fill="#13153A"/>
<circle cx="152.389" cy="563.607" r="2.85159" transform="rotate(-180 152.389 563.607)" fill="#13153A"/>
<circle cx="115.947" cy="563.607" r="2.85159" transform="rotate(-180 115.947 563.607)" fill="#13153A"/>
<circle cx="79.5052" cy="563.607" r="2.85159" transform="rotate(-180 79.5052 563.607)" fill="#13153A"/>
<circle cx="43.0634" cy="563.607" r="2.85159" transform="rotate(-180 43.0634 563.607)" fill="#13153A"/>
<circle cx="6.62174" cy="563.607" r="2.85159" transform="rotate(-180 6.62174 563.607)" fill="#13153A"/>
<circle cx="662.573" cy="534.454" r="2.85159" transform="rotate(-180 662.573 534.454)" fill="#13153A"/>
<circle cx="626.131" cy="534.454" r="2.85159" transform="rotate(-180 626.131 534.454)" fill="#13153A"/>
<circle cx="589.689" cy="534.454" r="2.85159" transform="rotate(-180 589.689 534.454)" fill="#13153A"/>
<circle cx="553.247" cy="534.454" r="2.85159" transform="rotate(-180 553.247 534.454)" fill="#13153A"/>
<circle cx="516.806" cy="534.454" r="2.85159" transform="rotate(-180 516.806 534.454)" fill="#13153A"/>
<circle cx="480.364" cy="534.454" r="2.85159" transform="rotate(-180 480.364 534.454)" fill="#13153A"/>
<circle cx="443.922" cy="534.454" r="2.85159" transform="rotate(-180 443.922 534.454)" fill="#13153A"/>
<circle cx="407.481" cy="534.454" r="2.85159" transform="rotate(-180 407.481 534.454)" fill="#13153A"/>
<circle cx="371.039" cy="534.454" r="2.85159" transform="rotate(-180 371.039 534.454)" fill="#13153A"/>
<circle cx="334.597" cy="534.454" r="2.85159" transform="rotate(-180 334.597 534.454)" fill="#13153A"/>
<circle cx="298.155" cy="534.454" r="2.85159" transform="rotate(-180 298.155 534.454)" fill="#13153A"/>
<circle cx="261.714" cy="534.454" r="2.85159" transform="rotate(-180 261.714 534.454)" fill="#13153A"/>
<circle cx="225.272" cy="534.454" r="2.85159" transform="rotate(-180 225.272 534.454)" fill="#13153A"/>
<circle cx="188.83" cy="534.454" r="2.85159" transform="rotate(-180 188.83 534.454)" fill="#13153A"/>
<circle cx="152.389" cy="534.454" r="2.85159" transform="rotate(-180 152.389 534.454)" fill="#13153A"/>
<circle cx="115.947" cy="534.454" r="2.85159" transform="rotate(-180 115.947 534.454)" fill="#13153A"/>
<circle cx="79.5052" cy="534.454" r="2.85159" transform="rotate(-180 79.5052 534.454)" fill="#13153A"/>
<circle cx="43.0634" cy="534.454" r="2.85159" transform="rotate(-180 43.0634 534.454)" fill="#13153A"/>
<circle cx="6.62174" cy="534.454" r="2.85159" transform="rotate(-180 6.62174 534.454)" fill="#13153A"/>
<circle cx="662.573" cy="505.3" r="2.85159" transform="rotate(-180 662.573 505.3)" fill="#13153A"/>
<circle cx="626.131" cy="505.3" r="2.85159" transform="rotate(-180 626.131 505.3)" fill="#13153A"/>
<circle cx="589.689" cy="505.3" r="2.85159" transform="rotate(-180 589.689 505.3)" fill="#13153A"/>
<circle cx="553.247" cy="505.3" r="2.85159" transform="rotate(-180 553.247 505.3)" fill="#13153A"/>
<circle cx="516.806" cy="505.3" r="2.85159" transform="rotate(-180 516.806 505.3)" fill="#13153A"/>
<circle cx="480.364" cy="505.3" r="2.85159" transform="rotate(-180 480.364 505.3)" fill="#13153A"/>
<circle cx="443.922" cy="505.3" r="2.85159" transform="rotate(-180 443.922 505.3)" fill="#13153A"/>
<circle cx="407.481" cy="505.3" r="2.85159" transform="rotate(-180 407.481 505.3)" fill="#13153A"/>
<circle cx="371.039" cy="505.3" r="2.85159" transform="rotate(-180 371.039 505.3)" fill="#13153A"/>
<circle cx="334.597" cy="505.3" r="2.85159" transform="rotate(-180 334.597 505.3)" fill="#13153A"/>
<circle cx="298.155" cy="505.3" r="2.85159" transform="rotate(-180 298.155 505.3)" fill="#13153A"/>
<circle cx="261.714" cy="505.3" r="2.85159" transform="rotate(-180 261.714 505.3)" fill="#13153A"/>
<circle cx="225.272" cy="505.3" r="2.85159" transform="rotate(-180 225.272 505.3)" fill="#13153A"/>
<circle cx="188.83" cy="505.3" r="2.85159" transform="rotate(-180 188.83 505.3)" fill="#13153A"/>
<circle cx="152.389" cy="505.3" r="2.85159" transform="rotate(-180 152.389 505.3)" fill="#13153A"/>
<circle cx="115.947" cy="505.3" r="2.85159" transform="rotate(-180 115.947 505.3)" fill="#13153A"/>
<circle cx="79.5052" cy="505.3" r="2.85159" transform="rotate(-180 79.5052 505.3)" fill="#13153A"/>
<circle cx="43.0634" cy="505.3" r="2.85159" transform="rotate(-180 43.0634 505.3)" fill="#13153A"/>
<circle cx="6.62174" cy="505.3" r="2.85159" transform="rotate(-180 6.62174 505.3)" fill="#13153A"/>
<circle cx="662.573" cy="476.146" r="2.85159" transform="rotate(-180 662.573 476.146)" fill="#13153A"/>
<circle cx="626.131" cy="476.146" r="2.85159" transform="rotate(-180 626.131 476.146)" fill="#13153A"/>
<circle cx="589.689" cy="476.146" r="2.85159" transform="rotate(-180 589.689 476.146)" fill="#13153A"/>
<circle cx="553.247" cy="476.146" r="2.85159" transform="rotate(-180 553.247 476.146)" fill="#13153A"/>
<circle cx="516.806" cy="476.146" r="2.85159" transform="rotate(-180 516.806 476.146)" fill="#13153A"/>
<circle cx="480.364" cy="476.146" r="2.85159" transform="rotate(-180 480.364 476.146)" fill="#13153A"/>
<circle cx="443.922" cy="476.146" r="2.85159" transform="rotate(-180 443.922 476.146)" fill="#13153A"/>
<circle cx="407.481" cy="476.146" r="2.85159" transform="rotate(-180 407.481 476.146)" fill="#13153A"/>
<circle cx="371.039" cy="476.146" r="2.85159" transform="rotate(-180 371.039 476.146)" fill="#13153A"/>
<circle cx="334.597" cy="476.146" r="2.85159" transform="rotate(-180 334.597 476.146)" fill="#13153A"/>
<circle cx="298.155" cy="476.146" r="2.85159" transform="rotate(-180 298.155 476.146)" fill="#13153A"/>
<circle cx="261.714" cy="476.146" r="2.85159" transform="rotate(-180 261.714 476.146)" fill="#13153A"/>
<circle cx="225.272" cy="476.146" r="2.85159" transform="rotate(-180 225.272 476.146)" fill="#13153A"/>
<circle cx="188.83" cy="476.146" r="2.85159" transform="rotate(-180 188.83 476.146)" fill="#13153A"/>
<circle cx="152.389" cy="476.146" r="2.85159" transform="rotate(-180 152.389 476.146)" fill="#13153A"/>
<circle cx="115.947" cy="476.146" r="2.85159" transform="rotate(-180 115.947 476.146)" fill="#13153A"/>
<circle cx="79.5052" cy="476.146" r="2.85159" transform="rotate(-180 79.5052 476.146)" fill="#13153A"/>
<circle cx="43.0634" cy="476.146" r="2.85159" transform="rotate(-180 43.0634 476.146)" fill="#13153A"/>
<circle cx="6.62174" cy="476.146" r="2.85159" transform="rotate(-180 6.62174 476.146)" fill="#13153A"/>
<circle cx="662.573" cy="446.993" r="2.85159" transform="rotate(-180 662.573 446.993)" fill="#13153A"/>
<circle cx="626.131" cy="446.993" r="2.85159" transform="rotate(-180 626.131 446.993)" fill="#13153A"/>
<circle cx="589.689" cy="446.993" r="2.85159" transform="rotate(-180 589.689 446.993)" fill="#13153A"/>
<circle cx="553.247" cy="446.993" r="2.85159" transform="rotate(-180 553.247 446.993)" fill="#13153A"/>
<circle cx="516.806" cy="446.993" r="2.85159" transform="rotate(-180 516.806 446.993)" fill="#13153A"/>
<circle cx="480.364" cy="446.993" r="2.85159" transform="rotate(-180 480.364 446.993)" fill="#13153A"/>
<circle cx="443.922" cy="446.993" r="2.85159" transform="rotate(-180 443.922 446.993)" fill="#13153A"/>
<circle cx="407.481" cy="446.993" r="2.85159" transform="rotate(-180 407.481 446.993)" fill="#13153A"/>
<circle cx="371.039" cy="446.993" r="2.85159" transform="rotate(-180 371.039 446.993)" fill="#13153A"/>
<circle cx="334.597" cy="446.993" r="2.85159" transform="rotate(-180 334.597 446.993)" fill="#13153A"/>
<circle cx="298.155" cy="446.993" r="2.85159" transform="rotate(-180 298.155 446.993)" fill="#13153A"/>
<circle cx="261.714" cy="446.993" r="2.85159" transform="rotate(-180 261.714 446.993)" fill="#13153A"/>
<circle cx="225.272" cy="446.993" r="2.85159" transform="rotate(-180 225.272 446.993)" fill="#13153A"/>
<circle cx="188.83" cy="446.993" r="2.85159" transform="rotate(-180 188.83 446.993)" fill="#13153A"/>
<circle cx="152.389" cy="446.993" r="2.85159" transform="rotate(-180 152.389 446.993)" fill="#13153A"/>
<circle cx="115.947" cy="446.993" r="2.85159" transform="rotate(-180 115.947 446.993)" fill="#13153A"/>
<circle cx="79.5052" cy="446.993" r="2.85159" transform="rotate(-180 79.5052 446.993)" fill="#13153A"/>
<circle cx="43.0634" cy="446.993" r="2.85159" transform="rotate(-180 43.0634 446.993)" fill="#13153A"/>
<circle cx="6.62174" cy="446.993" r="2.85159" transform="rotate(-180 6.62174 446.993)" fill="#13153A"/>
</g>
</svg>
