<svg width="1981" height="662" viewBox="0 0 1981 662" fill="none" xmlns="http://www.w3.org/2000/svg">
<path d="M0 692.495C94.3609 692.495 183.789 676.281 271.625 640.746C351.093 608.596 426.587 568.596 500.399 525.188C553.973 493.682 603.529 456.446 656.583 424.383C713.575 389.94 778.45 368.85 843.911 357.764C933.054 342.667 1021.5 353.482 1110.85 359.755C1276.97 371.417 1445.17 368.552 1609.73 341.49C1715.1 324.162 1784.02 306.128 1888.85 274.403C2150.68 195.165 2404.28 93.1875 2661.69 1.25635" stroke="#404430" stroke-opacity="0.5" stroke-linecap="round"/>
<path d="M7.68671 501.314C77.336 549.985 149.038 610.912 231.426 637.127C268.922 649.057 309.24 657.363 348.389 660.777C412.297 666.349 477.888 656.922 539.931 641.927C604.048 626.43 654.306 597.494 708.292 560.556C774.724 515.103 842.117 469.586 912.128 429.778C1020.78 367.998 1139 327.845 1258.57 292.912C1405.74 249.917 1555.24 213.63 1703.94 176.418C1913.22 124.046 2123.64 77.7013 2334.3 31.356" stroke="#404430" stroke-opacity="0.5" stroke-linecap="round"/>
</svg>
