<svg width="1390" height="1148" viewBox="0 0 1390 1148" fill="none" xmlns="http://www.w3.org/2000/svg">
<g opacity="0.15">
<path fill-rule="evenodd" clip-rule="evenodd" d="M1863.18 598.143C1862.8 906.815 1411.07 1077.37 999.934 1150.49C685.18 1206.47 364.546 1095.81 193.558 895.089C53.4278 730.596 193.673 540.573 344.643 381.265C513.142 203.459 710.486 1.20465 1001.3 42.7386C1417.23 102.142 1863.56 289.001 1863.18 598.143Z" stroke="#404430"/>
<path fill-rule="evenodd" clip-rule="evenodd" d="M1863.17 516.755C1862.79 825.426 1411.06 995.977 999.925 1069.1C685.172 1125.08 364.538 1014.42 193.549 813.701C53.4195 649.207 -84.4461 548.46 66.5243 389.152C235.023 211.346 680.629 476.907 1256.52 130.694C1832.41 -215.519 1863.55 207.613 1863.17 516.755Z" stroke="#404430"/>
</g>
</svg>
