<svg width="325" height="57" viewBox="0 0 325 57" fill="none" xmlns="http://www.w3.org/2000/svg">
<path d="M66.5088 55.2492H55.5953V45.3858L55.5767 45.3995V40.6694L55.5953 40.6831V19.6985L41.3416 30.1703L44.6631 32.6174V43.9845L25.9156 30.1566L66.5088 0.333984V55.2492Z" fill="white"/>
<path d="M0.497009 0.457031L11.3362 8.42705L25.7294 18.9945L18.0164 24.6679L16.3417 23.4375L11.3362 19.7669V29.5688V40.9155V55.4338H0.422577V11.7422V0.457031H0.497009Z" fill="white"/>
<path d="M79.9158 37.2245C82.0092 36.0556 85.0516 35.4678 89.0337 35.4678C93.0159 35.4678 96.0862 36.0556 98.0958 37.2381C100.105 38.4206 101.101 40.0475 101.101 42.1254V49.945C101.101 51.1891 100.645 52.2759 99.7333 53.2055C98.8215 54.1283 97.4632 54.846 95.6675 55.345C93.8718 55.844 91.6296 56.0969 88.9593 56.0969C86.4379 56.0969 84.2701 55.8576 82.4465 55.386C80.6229 54.9144 79.218 54.2171 78.2411 53.3012C77.2642 52.3853 76.7804 51.2643 76.7804 49.945V42.0981C76.7804 40.0201 77.8317 38.3933 79.9251 37.2245H79.9158ZM82.0744 51.7017C82.7536 52.2144 83.684 52.5767 84.8749 52.8091C86.0565 53.0346 87.4056 53.1508 88.9221 53.1508C90.4387 53.1508 91.7133 53.0346 92.9135 52.7954C94.1044 52.5562 95.0627 52.1802 95.7698 51.6607C96.4769 51.1412 96.8305 50.4645 96.8305 49.6375V42.6381C96.8305 41.5991 96.5328 40.7857 95.9466 40.2047C95.3512 39.6168 94.4766 39.2067 93.3229 38.9606C92.1692 38.7146 90.7271 38.5915 89.0058 38.5915C87.4149 38.5915 86.0193 38.7077 84.819 38.947C83.6281 39.1862 82.6977 39.5963 82.0465 40.1773C81.3952 40.7652 81.0602 41.5854 81.0602 42.6449V49.6716C81.0602 50.5192 81.4045 51.2028 82.0837 51.7086L82.0744 51.7017Z" fill="white"/>
<path d="M107.353 35.9463L116.22 51.8385L125.049 35.9463H130.102L118.844 55.7756H113.596L102.338 35.9463H107.353Z" fill="white"/>
<path d="M137.749 35.9463V55.7756H133.47V35.9463H137.749Z" fill="white"/>
<path d="M170.369 55.7756H166.052L146.151 40.3893V55.7756H141.834V35.9463H146.151L166.052 51.36V35.9463H170.369V55.7756Z" fill="white"/>
<path d="M204.012 55.7756L201.007 50.5603H188.01L185.079 55.7756H180.297L191.629 35.9463H197.565L208.897 55.7756H204.003H204.012ZM199.072 47.2451L194.56 39.1726L189.935 47.2451H199.072Z" fill="white"/>
<path d="M231.589 39.0632H216.47V44.0462H226.575L225.104 47.0196H216.47V55.7756H212.228V35.9463H231.589V39.0632Z" fill="white"/>
<path d="M253.082 36.2607C254.403 36.4658 255.566 36.828 256.571 37.3339C257.575 37.8465 258.357 38.5574 258.925 39.4733C259.492 40.3893 259.771 41.5444 259.771 42.9457C259.771 43.9505 259.585 44.8733 259.213 45.7208C258.841 46.5684 258.329 47.3135 257.668 47.9423C257.017 48.578 256.245 49.0702 255.37 49.4324L260.153 55.7756H255.026L250.858 50.1091C250.625 50.1502 250.263 50.1775 249.779 50.1912C249.286 50.2117 248.811 50.2185 248.337 50.2185H238.912V55.7688H234.669V35.9395H248.82C250.337 35.9395 251.76 36.042 253.082 36.2539V36.2607ZM250.867 47.1084C251.816 47.0127 252.626 46.8213 253.277 46.5274C253.928 46.2335 254.431 45.8029 254.784 45.2355C255.129 44.6682 255.305 43.9026 255.305 42.9389C255.305 42.0503 255.129 41.3462 254.784 40.8267C254.44 40.3072 253.928 39.9176 253.258 39.6647C252.589 39.4118 251.779 39.2478 250.83 39.1657C249.881 39.0906 248.802 39.0495 247.592 39.0495H238.995V47.2383H247.592C248.83 47.2383 249.918 47.1904 250.867 47.0948V47.1084Z" fill="white"/>
<path d="M267.754 35.9463V55.7756H263.474V35.9463H267.754Z" fill="white"/>
<path d="M287.125 38.8786C286.008 38.7966 284.994 38.7488 284.101 38.7488C282.454 38.7488 281.031 38.8103 279.821 38.9333C278.612 39.0563 277.691 39.3229 277.049 39.7399C276.407 40.1568 276.081 40.7994 276.081 41.6675V49.658C276.081 50.6218 276.379 51.3326 276.984 51.7974C277.588 52.2622 278.454 52.563 279.57 52.7065C280.687 52.8501 282.017 52.9184 283.561 52.9184C284.743 52.9184 285.915 52.8638 287.088 52.7612C288.26 52.6587 289.274 52.5425 290.13 52.4058C290.995 52.2759 291.526 52.1871 291.73 52.1529L292.651 55.1263C290.977 55.427 289.358 55.6663 287.795 55.8508C286.222 56.0285 284.697 56.1174 283.208 56.1174C280.687 56.1174 278.575 55.926 276.863 55.5501C275.151 55.1741 273.867 54.5794 273.011 53.766C272.145 52.9526 271.717 51.9068 271.717 50.6218V41.0181C271.717 39.6784 272.183 38.612 273.122 37.8191C274.062 37.0262 275.374 36.4589 277.058 36.1171C278.742 35.7754 280.705 35.6045 282.938 35.6045C284.324 35.6045 285.711 35.6865 287.106 35.8437C288.493 36.0078 289.879 36.2539 291.274 36.5956L289.925 39.2272C289.181 39.0769 288.251 38.9607 287.125 38.8718V38.8786Z" fill="white"/>
<path d="M319.382 55.7756L316.377 50.5603H303.379L300.448 55.7756H295.666L306.998 35.9463H312.934L324.266 55.7756H319.373H319.382ZM314.451 47.2451L309.938 39.1726L305.314 47.2451H314.451Z" fill="white"/>
<path d="M222.174 28.4209L224.156 31.6267L226.137 28.4209H226.733L224.463 32.1052H223.867L221.588 28.4209H222.183H222.174Z" fill="white"/>
<path d="M234.613 28.4209H238.205V28.7968H235.153V29.9315H237.479L237.321 30.3075H235.153V31.7497H238.195V32.1052H234.623V28.4209H234.613Z" fill="white"/>
<path d="M251.314 32.112H250.746L246.55 28.9746V32.112H246.011V28.4277H246.55L250.765 31.5788V28.4277H251.314V32.112Z" fill="white"/>
<path d="M261.176 32.112H260.637V28.7968H258.776V28.4277H263.084V28.7968H261.176V32.112Z" fill="white"/>
<path d="M275.169 31.7019C274.983 31.8591 274.713 31.9753 274.378 32.0505C274.044 32.1325 273.653 32.1667 273.206 32.1667C272.76 32.1667 272.378 32.1257 272.034 32.0505C271.69 31.9753 271.42 31.8591 271.224 31.7019C271.029 31.5447 270.936 31.3533 270.936 31.1277V28.4209H271.485V31.073C271.485 31.2371 271.559 31.3669 271.708 31.4763C271.857 31.5857 272.062 31.6609 272.322 31.7155C272.583 31.7702 272.871 31.7976 273.197 31.7976C273.523 31.7976 273.811 31.7702 274.071 31.7155C274.332 31.6609 274.537 31.5788 274.695 31.4763C274.853 31.3669 274.927 31.2302 274.927 31.073V28.4277H275.458V31.1345C275.458 31.3601 275.365 31.5515 275.179 31.7019H275.169Z" fill="white"/>
<path d="M286.53 28.4824C286.79 28.5234 287.004 28.5918 287.19 28.6875C287.376 28.7832 287.516 28.9062 287.609 29.0634C287.711 29.2206 287.758 29.4189 287.758 29.6513C287.758 29.8427 287.72 30.0135 287.646 30.1639C287.572 30.3143 287.469 30.4442 287.33 30.5467C287.19 30.6492 287.023 30.7312 286.818 30.7928L287.804 32.112H287.172L286.26 30.8885C286.204 30.8953 286.148 30.9021 286.074 30.9021C285.999 30.9021 285.925 30.9021 285.85 30.9021H283.627V32.1052H283.078V28.4209H285.655C285.971 28.4209 286.26 28.4414 286.52 28.4824H286.53ZM286.26 30.4988C286.446 30.4783 286.604 30.4373 286.744 30.3826C286.883 30.328 286.995 30.2391 287.078 30.1161C287.162 29.993 287.199 29.8427 287.199 29.6513C287.199 29.4735 287.162 29.33 287.078 29.2138C286.995 29.1044 286.883 29.0156 286.734 28.9609C286.585 28.9062 286.418 28.8652 286.232 28.8379C286.036 28.8173 285.841 28.8037 285.627 28.8037H283.645V30.533H285.674C285.888 30.533 286.092 30.5194 286.269 30.4988H286.26Z" fill="white"/>
<path d="M295.917 28.4209H299.509V28.7968H296.457V29.9315H298.783L298.625 30.3075H296.457V31.7497H299.499V32.1052H295.927V28.4209H295.917Z" fill="white"/>
<path d="M311.222 28.8105C311.036 28.7832 310.859 28.7695 310.664 28.7558C310.478 28.7422 310.301 28.7422 310.134 28.7422C309.957 28.7422 309.771 28.749 309.566 28.7627C309.361 28.7763 309.166 28.8037 308.989 28.8447C308.813 28.8857 308.664 28.9335 308.543 28.9951C308.431 29.0634 308.375 29.1454 308.375 29.248C308.375 29.3437 308.431 29.4257 308.552 29.494C308.673 29.5624 308.831 29.6239 309.027 29.6786C309.222 29.7333 309.445 29.788 309.696 29.8358C309.938 29.8837 310.199 29.9383 310.459 29.993C310.72 30.0477 310.971 30.1024 311.222 30.1707C311.464 30.2391 311.687 30.3143 311.892 30.4031C312.088 30.492 312.246 30.5945 312.367 30.7107C312.488 30.8269 312.543 30.9636 312.543 31.1209C312.543 31.3054 312.478 31.4695 312.339 31.5993C312.199 31.736 312.013 31.8454 311.78 31.9274C311.548 32.0095 311.278 32.071 310.971 32.112C310.664 32.153 310.348 32.1735 310.003 32.1735C309.659 32.1735 309.315 32.153 309.008 32.112C308.701 32.071 308.412 32.0095 308.152 31.9274C307.891 31.8454 307.65 31.7429 307.436 31.6198L307.761 31.3669C307.929 31.4558 308.133 31.5378 308.366 31.5993C308.599 31.6609 308.859 31.7087 309.138 31.7429C309.417 31.7771 309.696 31.7907 309.976 31.7907C310.217 31.7907 310.45 31.7771 310.673 31.7565C310.897 31.736 311.111 31.695 311.297 31.6403C311.483 31.5857 311.632 31.5173 311.753 31.4353C311.864 31.3533 311.92 31.2507 311.92 31.1277C311.92 31.0183 311.864 30.9226 311.743 30.8474C311.622 30.7723 311.473 30.6971 311.278 30.6355C311.083 30.574 310.859 30.5193 310.618 30.4647C310.376 30.41 310.124 30.3553 309.864 30.3075C309.603 30.2596 309.352 30.1981 309.11 30.1366C308.868 30.075 308.645 30.0067 308.45 29.9247C308.254 29.8426 308.096 29.7538 307.984 29.6444C307.873 29.5351 307.817 29.412 307.817 29.2753C307.817 29.1113 307.882 28.9677 308.022 28.8515C308.152 28.7353 308.338 28.6396 308.561 28.5713C308.785 28.5029 309.045 28.4482 309.324 28.4209C309.603 28.3867 309.883 28.373 310.171 28.373C310.366 28.373 310.552 28.3799 310.757 28.3936C310.952 28.4072 311.148 28.4277 311.343 28.4551C311.539 28.4824 311.715 28.5234 311.892 28.5644L311.753 28.8994C311.604 28.8584 311.436 28.831 311.259 28.8037L311.222 28.8105Z" fill="white"/>
</svg>
