<svg width="324" height="57" viewBox="0 0 324 57" fill="none" xmlns="http://www.w3.org/2000/svg">
<path d="M66.1294 55.1761H55.2158V45.3127L55.1972 45.3263V40.5963L55.2158 40.61V19.6254L40.9621 30.0972L44.2836 32.5442V43.9114L25.5361 30.0835L66.1294 0.260864V55.1761Z" fill="#404430"/>
<path d="M0.117523 0.383911L10.9567 8.35393L25.3499 18.9214L17.6369 24.5947L15.9622 23.3644L10.9567 19.6938V29.4957V40.8424V55.3607H0.0430908V11.6691V0.383911H0.117523Z" fill="#404430"/>
<path d="M79.5364 37.1513C81.6298 35.9824 84.6722 35.3946 88.6543 35.3946C92.6364 35.3946 95.7067 35.9824 97.7164 37.1649C99.726 38.3475 100.722 39.9743 100.722 42.0522V49.8719C100.722 51.1159 100.266 52.2027 99.3539 53.1323C98.4421 54.0551 97.0837 54.7728 95.288 55.2718C93.4924 55.7708 91.2501 56.0237 88.5799 56.0237C86.0585 56.0237 83.8907 55.7844 82.0671 55.3128C80.2435 54.8412 78.8386 54.144 77.8617 53.228C76.8847 52.3121 76.4009 51.1911 76.4009 49.8719V42.0249C76.4009 39.9469 77.4523 38.3201 79.5457 37.1513H79.5364ZM81.6949 51.6286C82.3741 52.1412 83.3045 52.5035 84.4954 52.7359C85.677 52.9614 87.0261 53.0776 88.5426 53.0776C90.0592 53.0776 91.3338 52.9614 92.5341 52.7222C93.725 52.483 94.6833 52.107 95.3904 51.5875C96.0975 51.0681 96.451 50.3914 96.451 49.5643V42.5649C96.451 41.5259 96.1533 40.7125 95.5672 40.1315C94.9717 39.5437 94.0971 39.1335 92.9434 38.8875C91.7897 38.6414 90.3476 38.5183 88.6264 38.5183C87.0354 38.5183 85.6398 38.6345 84.4396 38.8738C83.2487 39.113 82.3183 39.5231 81.667 40.1041C81.0157 40.692 80.6808 41.5122 80.6808 42.5717V49.5985C80.6808 50.446 81.025 51.1296 81.7042 51.6354L81.6949 51.6286Z" fill="#404430"/>
<path d="M106.974 35.873L115.84 51.7652L124.67 35.873H129.722L118.464 55.7024H113.217L101.959 35.873H106.974Z" fill="#404430"/>
<path d="M137.37 35.873V55.7024H133.09V35.873H137.37Z" fill="#404430"/>
<path d="M169.99 55.7024H165.673L145.772 40.316V55.7024H141.454V35.873H145.772L165.673 51.2868V35.873H169.99V55.7024Z" fill="#404430"/>
<path d="M203.633 55.7024L200.628 50.487H187.63L184.699 55.7024H179.917L191.249 35.873H197.185L208.518 55.7024H203.624H203.633ZM198.693 47.1719L194.18 39.0993L189.556 47.1719H198.693Z" fill="#404430"/>
<path d="M231.21 38.99H216.091V43.9729H226.195L224.725 46.9463H216.091V55.7024H211.848V35.873H231.21V38.99Z" fill="#404430"/>
<path d="M252.702 36.1875C254.023 36.3926 255.186 36.7548 256.191 37.2607C257.196 37.7733 257.978 38.4842 258.545 39.4001C259.113 40.3161 259.392 41.4712 259.392 42.8725C259.392 43.8773 259.206 44.8 258.833 45.6476C258.461 46.4952 257.95 47.2403 257.289 47.8691C256.638 48.5048 255.866 48.997 254.991 49.3592L259.773 55.7024H254.647L250.479 50.0359C250.246 50.0769 249.883 50.1043 249.399 50.118C248.906 50.1385 248.432 50.1453 247.957 50.1453H238.532V55.6956H234.29V35.8662H248.441C249.957 35.8662 251.381 35.9688 252.702 36.1807V36.1875ZM250.488 47.0352C251.437 46.9395 252.246 46.7481 252.898 46.4542C253.549 46.1603 254.051 45.7297 254.405 45.1623C254.749 44.595 254.926 43.8294 254.926 42.8656C254.926 41.977 254.749 41.273 254.405 40.7535C254.061 40.234 253.549 39.8444 252.879 39.5915C252.209 39.3386 251.4 39.1746 250.451 39.0925C249.502 39.0173 248.422 38.9763 247.213 38.9763H238.616V47.1651H247.213C248.45 47.1651 249.539 47.1172 250.488 47.0215V47.0352Z" fill="#404430"/>
<path d="M267.375 35.873V55.7024H263.095V35.873H267.375Z" fill="#404430"/>
<path d="M286.745 38.8054C285.629 38.7234 284.615 38.6756 283.722 38.6756C282.075 38.6756 280.651 38.7371 279.442 38.8601C278.232 38.9832 277.311 39.2497 276.669 39.6667C276.027 40.0837 275.702 40.7262 275.702 41.5943V49.5848C275.702 50.5486 275.999 51.2595 276.604 51.7243C277.209 52.1891 278.074 52.4898 279.191 52.6334C280.307 52.7769 281.638 52.8453 283.182 52.8453C284.364 52.8453 285.536 52.7906 286.708 52.688C287.881 52.5855 288.895 52.4693 289.751 52.3326C290.616 52.2027 291.146 52.1139 291.351 52.0797L292.272 55.0531C290.597 55.3538 288.978 55.5931 287.415 55.7776C285.843 55.9553 284.317 56.0442 282.828 56.0442C280.307 56.0442 278.195 55.8528 276.483 55.4769C274.771 55.1009 273.487 54.5063 272.631 53.6928C271.766 52.8794 271.338 51.8336 271.338 50.5486V40.9449C271.338 39.6052 271.803 38.5389 272.743 37.746C273.683 36.9531 274.995 36.3857 276.679 36.044C278.363 35.7022 280.326 35.5313 282.559 35.5313C283.945 35.5313 285.331 35.6133 286.727 35.7705C288.113 35.9346 289.499 36.1807 290.895 36.5224L289.546 39.1541C288.802 39.0037 287.871 38.8875 286.745 38.7986V38.8054Z" fill="#404430"/>
<path d="M319.002 55.7024L315.997 50.487H303L300.069 55.7024H295.286L306.619 35.873H312.555L323.887 55.7024H318.993H319.002ZM314.071 47.1719L309.559 39.0993L304.935 47.1719H314.071Z" fill="#404430"/>
<path d="M221.794 28.3474L223.776 31.5531L225.758 28.3474H226.353L224.083 32.0316H223.488L221.208 28.3474H221.804H221.794Z" fill="#404430"/>
<path d="M234.234 28.3474H237.825V28.7233H234.773V29.858H237.099L236.941 30.2339H234.773V31.6762H237.816V32.0316H234.243V28.3474H234.234Z" fill="#404430"/>
<path d="M250.935 32.0384H250.367L246.171 28.901V32.0384H245.631V28.3542H246.171L250.386 31.5053V28.3542H250.935V32.0384Z" fill="#404430"/>
<path d="M260.797 32.0384H260.257V28.7233H258.396V28.3542H262.704V28.7233H260.797V32.0384Z" fill="#404430"/>
<path d="M274.79 31.6283C274.604 31.7855 274.334 31.9017 273.999 31.9769C273.664 32.0589 273.273 32.0931 272.827 32.0931C272.38 32.0931 271.999 32.0521 271.654 31.9769C271.31 31.9017 271.04 31.7855 270.845 31.6283C270.65 31.4711 270.557 31.2797 270.557 31.0541V28.3474H271.105V30.9995C271.105 31.1635 271.18 31.2934 271.329 31.4028C271.478 31.5121 271.682 31.5873 271.943 31.642C272.203 31.6967 272.492 31.724 272.817 31.724C273.143 31.724 273.431 31.6967 273.692 31.642C273.952 31.5873 274.157 31.5053 274.315 31.4028C274.474 31.2934 274.548 31.1567 274.548 30.9995V28.3542H275.078V31.061C275.078 31.2866 274.985 31.4779 274.799 31.6283H274.79Z" fill="#404430"/>
<path d="M286.15 28.4089C286.411 28.4499 286.625 28.5182 286.811 28.6139C286.997 28.7096 287.136 28.8327 287.229 28.9899C287.332 29.1471 287.378 29.3453 287.378 29.5777C287.378 29.7691 287.341 29.94 287.267 30.0904C287.192 30.2407 287.09 30.3706 286.95 30.4731C286.811 30.5757 286.643 30.6577 286.438 30.7192L287.425 32.0384H286.792L285.88 30.8149C285.824 30.8217 285.769 30.8286 285.694 30.8286C285.62 30.8286 285.545 30.8286 285.471 30.8286H283.247V32.0316H282.698V28.3474H285.275C285.592 28.3474 285.88 28.3679 286.141 28.4089H286.15ZM285.88 30.4253C286.066 30.4048 286.224 30.3638 286.364 30.3091C286.504 30.2544 286.615 30.1656 286.699 30.0425C286.783 29.9195 286.82 29.7691 286.82 29.5777C286.82 29.4 286.783 29.2565 286.699 29.1403C286.615 29.0309 286.504 28.942 286.355 28.8873C286.206 28.8327 286.038 28.7916 285.852 28.7643C285.657 28.7438 285.462 28.7301 285.248 28.7301H283.266V30.4595H285.294C285.508 30.4595 285.713 30.4458 285.89 30.4253H285.88Z" fill="#404430"/>
<path d="M295.538 28.3474H299.129V28.7233H296.077V29.858H298.403L298.245 30.2339H296.077V31.6762H299.12V32.0316H295.547V28.3474H295.538Z" fill="#404430"/>
<path d="M310.843 28.737C310.657 28.7096 310.48 28.696 310.285 28.6823C310.099 28.6686 309.922 28.6686 309.754 28.6686C309.577 28.6686 309.391 28.6754 309.187 28.6891C308.982 28.7028 308.787 28.7301 308.61 28.7711C308.433 28.8122 308.284 28.86 308.163 28.9215C308.052 28.9899 307.996 29.0719 307.996 29.1744C307.996 29.2701 308.052 29.3521 308.173 29.4205C308.294 29.4889 308.452 29.5504 308.647 29.6051C308.842 29.6597 309.066 29.7144 309.317 29.7623C309.559 29.8101 309.819 29.8648 310.08 29.9195C310.34 29.9742 310.592 30.0288 310.843 30.0972C311.085 30.1656 311.308 30.2407 311.513 30.3296C311.708 30.4185 311.866 30.521 311.987 30.6372C312.108 30.7534 312.164 30.8901 312.164 31.0473C312.164 31.2319 312.099 31.3959 311.959 31.5258C311.82 31.6625 311.634 31.7719 311.401 31.8539C311.168 31.9359 310.899 31.9974 310.592 32.0384C310.285 32.0795 309.968 32.1 309.624 32.1C309.28 32.1 308.936 32.0795 308.628 32.0384C308.321 31.9974 308.033 31.9359 307.773 31.8539C307.512 31.7719 307.27 31.6693 307.056 31.5463L307.382 31.2934C307.549 31.3822 307.754 31.4643 307.987 31.5258C308.219 31.5873 308.48 31.6352 308.759 31.6693C309.038 31.7035 309.317 31.7172 309.596 31.7172C309.838 31.7172 310.071 31.7035 310.294 31.683C310.517 31.6625 310.731 31.6215 310.917 31.5668C311.103 31.5121 311.252 31.4438 311.373 31.3617C311.485 31.2797 311.541 31.1772 311.541 31.0541C311.541 30.9448 311.485 30.8491 311.364 30.7739C311.243 30.6987 311.094 30.6235 310.899 30.562C310.703 30.5005 310.48 30.4458 310.238 30.3911C309.996 30.3364 309.745 30.2818 309.484 30.2339C309.224 30.1861 308.973 30.1245 308.731 30.063C308.489 30.0015 308.266 29.9331 308.07 29.8511C307.875 29.7691 307.717 29.6802 307.605 29.5709C307.493 29.4615 307.438 29.3385 307.438 29.2018C307.438 29.0377 307.503 28.8942 307.642 28.778C307.773 28.6618 307.959 28.5661 308.182 28.4977C308.405 28.4294 308.666 28.3747 308.945 28.3473C309.224 28.3132 309.503 28.2995 309.791 28.2995C309.987 28.2995 310.173 28.3063 310.378 28.32C310.573 28.3337 310.768 28.3542 310.964 28.3815C311.159 28.4089 311.336 28.4499 311.513 28.4909L311.373 28.8258C311.224 28.7848 311.057 28.7575 310.88 28.7301L310.843 28.737Z" fill="#404430"/>
</svg>
