<svg width="156" height="28" viewBox="0 0 156 28" fill="none" xmlns="http://www.w3.org/2000/svg">
<path d="M31.8347 26.8141H26.5774V22.04L26.5685 22.0466V19.7572L26.5774 19.7638V9.607L19.7112 14.6755L21.3113 15.8599V21.3618L12.2803 14.6689L31.8347 0.234253V26.8141Z" fill="#404430"/>
<path d="M0.0358548 0.293823L5.25722 4.15144L12.1906 9.26625L8.47519 12.0122L7.66846 11.4167L5.25722 9.6401V14.3844V19.8763V26.9034H0V5.75602V0.293823H0.0358548Z" fill="#404430"/>
<path d="M38.293 18.0898C39.3014 17.524 40.767 17.2395 42.6852 17.2395C44.6035 17.2395 46.0825 17.524 47.0505 18.0964C48.0186 18.6687 48.4982 19.4561 48.4982 20.4619V24.2467C48.4982 24.8489 48.2786 25.3749 47.8394 25.8248C47.4001 26.2715 46.7458 26.6189 45.8808 26.8604C45.0158 27.1019 43.9357 27.2243 42.6494 27.2243C41.4348 27.2243 40.3905 27.1085 39.5121 26.8802C38.6336 26.6519 37.9569 26.3145 37.4863 25.8712C37.0157 25.4278 36.7826 24.8853 36.7826 24.2467V20.4487C36.7826 19.4429 37.2891 18.6555 38.2975 18.0898H38.293ZM39.3328 25.097C39.66 25.3451 40.1081 25.5205 40.6818 25.633C41.251 25.7421 41.9009 25.7984 42.6314 25.7984C43.362 25.7984 43.976 25.7421 44.5542 25.6263C45.1278 25.5105 45.5895 25.3286 45.9301 25.0771C46.2707 24.8257 46.441 24.4982 46.441 24.0978V20.71C46.441 20.2072 46.2976 19.8135 46.0152 19.5322C45.7284 19.2477 45.3071 19.0492 44.7514 18.9301C44.1956 18.811 43.5009 18.7514 42.6718 18.7514C41.9054 18.7514 41.2331 18.8077 40.6549 18.9235C40.0813 19.0393 39.6331 19.2378 39.3193 19.519C39.0056 19.8035 38.8443 20.2005 38.8443 20.7133V24.1144C38.8443 24.5246 39.0101 24.8555 39.3373 25.1003L39.3328 25.097Z" fill="#404430"/>
<path d="M51.51 17.4711L55.7812 25.1631L60.0345 17.4711H62.4681L57.0451 27.0688H54.5173L49.0943 17.4711H51.51Z" fill="#404430"/>
<path d="M66.1522 17.4711V27.0688H64.0906V17.4711H66.1522Z" fill="#404430"/>
<path d="M81.8656 27.0688H79.7861L70.1994 19.6215V27.0688H68.1198V17.4711H70.1994L79.7861 24.9316V17.4711H81.8656V27.0688Z" fill="#404430"/>
<path d="M98.072 27.0688L96.6244 24.5445H90.3632L88.9514 27.0688H86.6477L92.1066 17.4711H94.9661L100.425 27.0688H98.0675H98.072ZM95.6921 22.9399L93.5184 19.0326L91.2909 22.9399H95.6921Z" fill="#404430"/>
<path d="M111.356 18.9797H104.073V21.3915H108.94L108.232 22.8307H104.073V27.0688H102.029V17.4711H111.356V18.9797Z" fill="#404430"/>
<path d="M121.709 17.6233C122.346 17.7225 122.906 17.8979 123.39 18.1427C123.874 18.3908 124.251 18.7349 124.524 19.1782C124.797 19.6216 124.932 20.1807 124.932 20.8589C124.932 21.3452 124.842 21.7919 124.663 22.2021C124.484 22.6124 124.237 22.973 123.919 23.2774C123.605 23.585 123.233 23.8232 122.812 23.9986L125.116 27.0688H122.646L120.638 24.3261C120.526 24.346 120.351 24.3592 120.118 24.3658C119.881 24.3758 119.652 24.3791 119.424 24.3791H114.883V27.0655H112.84V17.4678H119.657C120.387 17.4678 121.073 17.5174 121.709 17.62V17.6233ZM120.643 22.8737C121.1 22.8274 121.49 22.7348 121.803 22.5925C122.117 22.4503 122.359 22.2418 122.529 21.9672C122.695 21.6926 122.78 21.3221 122.78 20.8556C122.78 20.4255 122.695 20.0847 122.529 19.8333C122.364 19.5819 122.117 19.3933 121.794 19.2709C121.472 19.1484 121.082 19.069 120.625 19.0293C120.168 18.993 119.648 18.9731 119.065 18.9731H114.924V22.9366H119.065C119.661 22.9366 120.185 22.9134 120.643 22.8671V22.8737Z" fill="#404430"/>
<path d="M128.777 17.4711V27.0688H126.716V17.4711H128.777Z" fill="#404430"/>
<path d="M138.108 18.8904C137.571 18.8507 137.082 18.8275 136.652 18.8275C135.859 18.8275 135.173 18.8573 134.59 18.9169C134.008 18.9764 133.564 19.1054 133.255 19.3073C132.945 19.5091 132.788 19.8201 132.788 20.2402V24.1078C132.788 24.5743 132.932 24.9183 133.223 25.1433C133.515 25.3683 133.931 25.5138 134.469 25.5833C135.007 25.6528 135.648 25.6859 136.392 25.6859C136.961 25.6859 137.526 25.6594 138.09 25.6098C138.655 25.5602 139.144 25.5039 139.556 25.4378C139.973 25.3749 140.228 25.3319 140.327 25.3153L140.771 26.7545C139.964 26.9001 139.184 27.0159 138.431 27.1052C137.674 27.1912 136.939 27.2342 136.222 27.2342C135.007 27.2342 133.99 27.1416 133.165 26.9596C132.34 26.7777 131.722 26.4898 131.309 26.0961C130.893 25.7024 130.686 25.1962 130.686 24.5743V19.9259C130.686 19.2775 130.911 18.7614 131.363 18.3776C131.816 17.9938 132.448 17.7192 133.259 17.5538C134.07 17.3884 135.016 17.3057 136.092 17.3057C136.759 17.3057 137.427 17.3454 138.099 17.4215C138.767 17.5009 139.435 17.62 140.107 17.7854L139.457 19.0591C139.099 18.9863 138.651 18.9301 138.108 18.8871V18.8904Z" fill="#404430"/>
<path d="M153.647 27.0688L152.199 24.5445H145.938L144.526 27.0688H142.223L147.682 17.4711H150.541L156 27.0688H153.643H153.647ZM151.272 22.9399L149.098 19.0326L146.87 22.9399H151.272Z" fill="#404430"/>
<path d="M106.821 13.8286L107.775 15.3803L108.73 13.8286H109.017L107.923 15.6118H107.636L106.538 13.8286H106.825H106.821Z" fill="#404430"/>
<path d="M112.813 13.8286H114.543V14.0106H113.073V14.5598H114.193L114.117 14.7417H113.073V15.4398H114.538V15.6118H112.817V13.8286H112.813Z" fill="#404430"/>
<path d="M120.858 15.6151H120.584L118.563 14.0966V15.6151H118.303V13.8319H118.563L120.593 15.3571V13.8319H120.858V15.6151Z" fill="#404430"/>
<path d="M125.609 15.6151H125.349V14.0106H124.452V13.8319H126.527V14.0106H125.609V15.6151Z" fill="#404430"/>
<path d="M132.349 15.4167C132.26 15.4927 132.13 15.549 131.968 15.5854C131.807 15.6251 131.619 15.6416 131.404 15.6416C131.188 15.6416 131.005 15.6218 130.839 15.5854C130.673 15.549 130.543 15.4927 130.449 15.4167C130.355 15.3406 130.31 15.2479 130.31 15.1387V13.8286H130.574V15.1123C130.574 15.1917 130.61 15.2545 130.682 15.3075C130.754 15.3604 130.852 15.3968 130.978 15.4233C131.103 15.4497 131.242 15.463 131.399 15.463C131.556 15.463 131.695 15.4497 131.82 15.4233C131.946 15.3968 132.044 15.3571 132.121 15.3075C132.197 15.2545 132.233 15.1884 132.233 15.1123V13.8319H132.488V15.1421C132.488 15.2512 132.443 15.3439 132.354 15.4167H132.349Z" fill="#404430"/>
<path d="M137.822 13.8584C137.947 13.8782 138.05 13.9113 138.14 13.9576C138.229 14.004 138.297 14.0635 138.342 14.1396C138.391 14.2157 138.413 14.3116 138.413 14.4241C138.413 14.5168 138.395 14.5995 138.359 14.6723C138.324 14.745 138.274 14.8079 138.207 14.8575C138.14 14.9072 138.059 14.9469 137.961 14.9766L138.436 15.6152H138.131L137.692 15.023C137.665 15.0263 137.638 15.0296 137.602 15.0296C137.566 15.0296 137.53 15.0296 137.494 15.0296H136.423V15.6118H136.159V13.8286H137.4C137.553 13.8286 137.692 13.8385 137.817 13.8584H137.822ZM137.692 14.8344C137.781 14.8244 137.857 14.8046 137.925 14.7781C137.992 14.7517 138.046 14.7087 138.086 14.6491C138.126 14.5895 138.144 14.5168 138.144 14.4241C138.144 14.3381 138.126 14.2686 138.086 14.2124C138.046 14.1595 137.992 14.1164 137.92 14.09C137.849 14.0635 137.768 14.0437 137.678 14.0304C137.584 14.0205 137.49 14.0139 137.387 14.0139H136.432V14.8509H137.409C137.512 14.8509 137.611 14.8443 137.696 14.8344H137.692Z" fill="#404430"/>
<path d="M142.344 13.8286H144.074V14.0106H142.604V14.5598H143.724L143.648 14.7417H142.604V15.4398H144.069V15.6118H142.348V13.8286H142.344Z" fill="#404430"/>
<path d="M149.716 14.0172C149.627 14.0039 149.542 13.9973 149.448 13.9907C149.358 13.9841 149.273 13.9841 149.192 13.9841C149.107 13.9841 149.017 13.9874 148.919 13.994C148.82 14.0006 148.726 14.0138 148.641 14.0337C148.556 14.0536 148.484 14.0767 148.426 14.1065C148.372 14.1396 148.345 14.1793 148.345 14.2289C148.345 14.2752 148.372 14.3149 148.43 14.348C148.488 14.3811 148.565 14.4109 148.659 14.4373C148.753 14.4638 148.86 14.4903 148.981 14.5134C149.098 14.5366 149.223 14.563 149.349 14.5895C149.474 14.616 149.595 14.6424 149.716 14.6755C149.833 14.7086 149.941 14.745 150.039 14.788C150.133 14.831 150.209 14.8807 150.268 14.9369C150.326 14.9931 150.353 15.0593 150.353 15.1354C150.353 15.2247 150.321 15.3041 150.254 15.367C150.187 15.4332 150.097 15.4861 149.985 15.5258C149.873 15.5655 149.743 15.5953 149.595 15.6151C149.448 15.635 149.295 15.6449 149.129 15.6449C148.963 15.6449 148.798 15.635 148.65 15.6151C148.502 15.5953 148.363 15.5655 148.237 15.5258C148.112 15.4861 147.995 15.4365 147.892 15.3769L148.049 15.2545C148.13 15.2975 148.228 15.3372 148.341 15.367C148.453 15.3968 148.578 15.4199 148.713 15.4365C148.847 15.453 148.981 15.4596 149.116 15.4596C149.232 15.4596 149.344 15.453 149.452 15.4431C149.56 15.4332 149.663 15.4133 149.752 15.3868C149.842 15.3604 149.914 15.3273 149.972 15.2876C150.026 15.2479 150.053 15.1983 150.053 15.1387C150.053 15.0858 150.026 15.0395 149.967 15.0031C149.909 14.9667 149.837 14.9303 149.743 14.9005C149.649 14.8707 149.542 14.8443 149.425 14.8178C149.309 14.7913 149.188 14.7649 149.062 14.7417C148.937 14.7185 148.816 14.6888 148.699 14.659C148.583 14.6292 148.475 14.5961 148.381 14.5564C148.287 14.5167 148.211 14.4737 148.157 14.4208C148.103 14.3679 148.076 14.3083 148.076 14.2421C148.076 14.1627 148.107 14.0933 148.175 14.037C148.237 13.9808 148.327 13.9344 148.435 13.9014C148.542 13.8683 148.668 13.8418 148.802 13.8286C148.937 13.812 149.071 13.8054 149.21 13.8054C149.304 13.8054 149.394 13.8087 149.492 13.8153C149.586 13.822 149.681 13.8319 149.775 13.8451C149.869 13.8584 149.954 13.8782 150.039 13.8981L149.972 14.0602C149.9 14.0403 149.82 14.0271 149.734 14.0139L149.716 14.0172Z" fill="#404430"/>
</svg>
