<svg width="234" height="433" viewBox="0 0 234 433" fill="none" xmlns="http://www.w3.org/2000/svg">
<path fill-rule="evenodd" clip-rule="evenodd" d="M534.598 215.57C534.481 333.928 395.515 399.324 269.039 427.362C172.211 448.827 73.5752 406.395 20.9742 329.432C-22.1337 266.358 21.0096 193.495 67.4524 132.409C119.288 64.2308 179.996 -13.3225 269.458 2.60347C397.409 25.3812 534.715 97.0313 534.598 215.57Z" fill="#E6EECF"/>
<g opacity="0.75">
<circle cx="2.0648" cy="145.421" r="1.1435" fill="#13153A"/>
<circle cx="16.6781" cy="145.421" r="1.1435" fill="#13153A"/>
<circle cx="31.2915" cy="145.421" r="1.1435" fill="#13153A"/>
<circle cx="45.9048" cy="145.421" r="1.1435" fill="#13153A"/>
<circle cx="60.5181" cy="145.421" r="1.1435" fill="#13153A"/>
<circle cx="75.1314" cy="145.421" r="1.1435" fill="#13153A"/>
<circle cx="89.7447" cy="145.421" r="1.1435" fill="#13153A"/>
<circle cx="104.358" cy="145.421" r="1.1435" fill="#13153A"/>
<circle cx="118.971" cy="145.421" r="1.1435" fill="#13153A"/>
<circle cx="133.585" cy="145.421" r="1.1435" fill="#13153A"/>
<circle cx="148.198" cy="145.421" r="1.1435" fill="#13153A"/>
<circle cx="162.811" cy="145.421" r="1.1435" fill="#13153A"/>
<circle cx="177.424" cy="145.421" r="1.1435" fill="#13153A"/>
<circle cx="192.038" cy="145.421" r="1.1435" fill="#13153A"/>
<circle cx="206.651" cy="145.421" r="1.1435" fill="#13153A"/>
<circle cx="221.264" cy="145.421" r="1.1435" fill="#13153A"/>
<circle cx="2.0648" cy="157.112" r="1.1435" fill="#13153A"/>
<circle cx="16.6781" cy="157.112" r="1.1435" fill="#13153A"/>
<circle cx="31.2915" cy="157.112" r="1.1435" fill="#13153A"/>
<circle cx="45.9048" cy="157.112" r="1.1435" fill="#13153A"/>
<circle cx="60.5181" cy="157.112" r="1.1435" fill="#13153A"/>
<circle cx="75.1314" cy="157.112" r="1.1435" fill="#13153A"/>
<circle cx="89.7447" cy="157.112" r="1.1435" fill="#13153A"/>
<circle cx="104.358" cy="157.112" r="1.1435" fill="#13153A"/>
<circle cx="118.971" cy="157.112" r="1.1435" fill="#13153A"/>
<circle cx="133.585" cy="157.112" r="1.1435" fill="#13153A"/>
<circle cx="148.198" cy="157.112" r="1.1435" fill="#13153A"/>
<circle cx="162.811" cy="157.112" r="1.1435" fill="#13153A"/>
<circle cx="177.424" cy="157.112" r="1.1435" fill="#13153A"/>
<circle cx="192.038" cy="157.112" r="1.1435" fill="#13153A"/>
<circle cx="206.651" cy="157.112" r="1.1435" fill="#13153A"/>
<circle cx="221.264" cy="157.112" r="1.1435" fill="#13153A"/>
<circle cx="2.0648" cy="168.802" r="1.1435" fill="#13153A"/>
<circle cx="16.6781" cy="168.802" r="1.1435" fill="#13153A"/>
<circle cx="31.2915" cy="168.802" r="1.1435" fill="#13153A"/>
<circle cx="45.9048" cy="168.802" r="1.1435" fill="#13153A"/>
<circle cx="60.5181" cy="168.802" r="1.1435" fill="#13153A"/>
<circle cx="75.1314" cy="168.802" r="1.1435" fill="#13153A"/>
<circle cx="89.7447" cy="168.802" r="1.1435" fill="#13153A"/>
<circle cx="104.358" cy="168.802" r="1.1435" fill="#13153A"/>
<circle cx="118.971" cy="168.802" r="1.1435" fill="#13153A"/>
<circle cx="133.585" cy="168.802" r="1.1435" fill="#13153A"/>
<circle cx="148.198" cy="168.802" r="1.1435" fill="#13153A"/>
<circle cx="162.811" cy="168.802" r="1.1435" fill="#13153A"/>
<circle cx="177.424" cy="168.802" r="1.1435" fill="#13153A"/>
<circle cx="192.038" cy="168.802" r="1.1435" fill="#13153A"/>
<circle cx="206.651" cy="168.802" r="1.1435" fill="#13153A"/>
<circle cx="221.264" cy="168.802" r="1.1435" fill="#13153A"/>
<circle cx="2.0648" cy="180.493" r="1.1435" fill="#13153A"/>
<circle cx="16.6781" cy="180.493" r="1.1435" fill="#13153A"/>
<circle cx="31.2915" cy="180.493" r="1.1435" fill="#13153A"/>
<circle cx="45.9048" cy="180.493" r="1.1435" fill="#13153A"/>
<circle cx="60.5181" cy="180.493" r="1.1435" fill="#13153A"/>
<circle cx="75.1314" cy="180.493" r="1.1435" fill="#13153A"/>
<circle cx="89.7447" cy="180.493" r="1.1435" fill="#13153A"/>
<circle cx="104.358" cy="180.493" r="1.1435" fill="#13153A"/>
<circle cx="118.971" cy="180.493" r="1.1435" fill="#13153A"/>
<circle cx="133.585" cy="180.493" r="1.1435" fill="#13153A"/>
<circle cx="148.198" cy="180.493" r="1.1435" fill="#13153A"/>
<circle cx="162.811" cy="180.493" r="1.1435" fill="#13153A"/>
<circle cx="177.424" cy="180.493" r="1.1435" fill="#13153A"/>
<circle cx="192.038" cy="180.493" r="1.1435" fill="#13153A"/>
<circle cx="206.651" cy="180.493" r="1.1435" fill="#13153A"/>
<circle cx="221.264" cy="180.493" r="1.1435" fill="#13153A"/>
<circle cx="2.0648" cy="192.184" r="1.1435" fill="#13153A"/>
<circle cx="16.6781" cy="192.184" r="1.1435" fill="#13153A"/>
<circle cx="31.2915" cy="192.184" r="1.1435" fill="#13153A"/>
<circle cx="45.9048" cy="192.184" r="1.1435" fill="#13153A"/>
<circle cx="60.5181" cy="192.184" r="1.1435" fill="#13153A"/>
<circle cx="75.1314" cy="192.184" r="1.1435" fill="#13153A"/>
<circle cx="89.7447" cy="192.184" r="1.1435" fill="#13153A"/>
<circle cx="104.358" cy="192.184" r="1.1435" fill="#13153A"/>
<circle cx="118.971" cy="192.184" r="1.1435" fill="#13153A"/>
<circle cx="133.585" cy="192.184" r="1.1435" fill="#13153A"/>
<circle cx="148.198" cy="192.184" r="1.1435" fill="#13153A"/>
<circle cx="162.811" cy="192.184" r="1.1435" fill="#13153A"/>
<circle cx="177.424" cy="192.184" r="1.1435" fill="#13153A"/>
<circle cx="192.038" cy="192.184" r="1.1435" fill="#13153A"/>
<circle cx="206.651" cy="192.184" r="1.1435" fill="#13153A"/>
<circle cx="221.264" cy="192.184" r="1.1435" fill="#13153A"/>
<circle cx="2.0648" cy="203.875" r="1.1435" fill="#13153A"/>
<circle cx="16.6781" cy="203.875" r="1.1435" fill="#13153A"/>
<circle cx="31.2915" cy="203.875" r="1.1435" fill="#13153A"/>
<circle cx="45.9048" cy="203.875" r="1.1435" fill="#13153A"/>
<circle cx="60.5181" cy="203.875" r="1.1435" fill="#13153A"/>
<circle cx="75.1314" cy="203.875" r="1.1435" fill="#13153A"/>
<circle cx="89.7447" cy="203.875" r="1.1435" fill="#13153A"/>
<circle cx="104.358" cy="203.875" r="1.1435" fill="#13153A"/>
<circle cx="118.971" cy="203.875" r="1.1435" fill="#13153A"/>
<circle cx="133.585" cy="203.875" r="1.1435" fill="#13153A"/>
<circle cx="148.198" cy="203.875" r="1.1435" fill="#13153A"/>
<circle cx="162.811" cy="203.875" r="1.1435" fill="#13153A"/>
<circle cx="177.424" cy="203.875" r="1.1435" fill="#13153A"/>
<circle cx="192.038" cy="203.875" r="1.1435" fill="#13153A"/>
<circle cx="206.651" cy="203.875" r="1.1435" fill="#13153A"/>
<circle cx="221.264" cy="203.875" r="1.1435" fill="#13153A"/>
<circle cx="2.0648" cy="215.566" r="1.1435" fill="#13153A"/>
<circle cx="16.6781" cy="215.565" r="1.1435" fill="#13153A"/>
<circle cx="31.2915" cy="215.565" r="1.1435" fill="#13153A"/>
<circle cx="45.9048" cy="215.565" r="1.1435" fill="#13153A"/>
<circle cx="60.5181" cy="215.565" r="1.1435" fill="#13153A"/>
<circle cx="75.1314" cy="215.565" r="1.1435" fill="#13153A"/>
<circle cx="89.7447" cy="215.565" r="1.1435" fill="#13153A"/>
<circle cx="104.358" cy="215.565" r="1.1435" fill="#13153A"/>
<circle cx="118.971" cy="215.565" r="1.1435" fill="#13153A"/>
<circle cx="133.585" cy="215.565" r="1.1435" fill="#13153A"/>
<circle cx="148.198" cy="215.565" r="1.1435" fill="#13153A"/>
<circle cx="162.811" cy="215.565" r="1.1435" fill="#13153A"/>
<circle cx="177.424" cy="215.565" r="1.1435" fill="#13153A"/>
<circle cx="192.038" cy="215.565" r="1.1435" fill="#13153A"/>
<circle cx="206.651" cy="215.565" r="1.1435" fill="#13153A"/>
<circle cx="221.264" cy="215.565" r="1.1435" fill="#13153A"/>
<circle cx="2.0648" cy="227.257" r="1.1435" fill="#13153A"/>
<circle cx="16.6781" cy="227.257" r="1.1435" fill="#13153A"/>
<circle cx="31.2915" cy="227.257" r="1.1435" fill="#13153A"/>
<circle cx="45.9048" cy="227.257" r="1.1435" fill="#13153A"/>
<circle cx="60.5181" cy="227.257" r="1.1435" fill="#13153A"/>
<circle cx="75.1314" cy="227.257" r="1.1435" fill="#13153A"/>
<circle cx="89.7447" cy="227.257" r="1.1435" fill="#13153A"/>
<circle cx="104.358" cy="227.257" r="1.1435" fill="#13153A"/>
<circle cx="118.971" cy="227.257" r="1.1435" fill="#13153A"/>
<circle cx="133.585" cy="227.257" r="1.1435" fill="#13153A"/>
<circle cx="148.198" cy="227.257" r="1.1435" fill="#13153A"/>
<circle cx="162.811" cy="227.257" r="1.1435" fill="#13153A"/>
<circle cx="177.424" cy="227.257" r="1.1435" fill="#13153A"/>
<circle cx="192.038" cy="227.257" r="1.1435" fill="#13153A"/>
<circle cx="206.651" cy="227.257" r="1.1435" fill="#13153A"/>
<circle cx="221.264" cy="227.257" r="1.1435" fill="#13153A"/>
<circle cx="2.0648" cy="238.947" r="1.1435" fill="#13153A"/>
<circle cx="16.6781" cy="238.947" r="1.1435" fill="#13153A"/>
<circle cx="31.2915" cy="238.947" r="1.1435" fill="#13153A"/>
<circle cx="45.9048" cy="238.947" r="1.1435" fill="#13153A"/>
<circle cx="60.5181" cy="238.947" r="1.1435" fill="#13153A"/>
<circle cx="75.1314" cy="238.947" r="1.1435" fill="#13153A"/>
<circle cx="89.7447" cy="238.947" r="1.1435" fill="#13153A"/>
<circle cx="104.358" cy="238.947" r="1.1435" fill="#13153A"/>
<circle cx="118.971" cy="238.947" r="1.1435" fill="#13153A"/>
<circle cx="133.585" cy="238.947" r="1.1435" fill="#13153A"/>
<circle cx="148.198" cy="238.947" r="1.1435" fill="#13153A"/>
<circle cx="162.811" cy="238.947" r="1.1435" fill="#13153A"/>
<circle cx="177.424" cy="238.947" r="1.1435" fill="#13153A"/>
<circle cx="192.038" cy="238.947" r="1.1435" fill="#13153A"/>
<circle cx="206.651" cy="238.947" r="1.1435" fill="#13153A"/>
<circle cx="221.264" cy="238.947" r="1.1435" fill="#13153A"/>
<circle cx="2.0648" cy="250.638" r="1.1435" fill="#13153A"/>
<circle cx="16.6781" cy="250.638" r="1.1435" fill="#13153A"/>
<circle cx="31.2915" cy="250.638" r="1.1435" fill="#13153A"/>
<circle cx="45.9048" cy="250.638" r="1.1435" fill="#13153A"/>
<circle cx="60.5181" cy="250.638" r="1.1435" fill="#13153A"/>
<circle cx="75.1314" cy="250.638" r="1.1435" fill="#13153A"/>
<circle cx="89.7447" cy="250.638" r="1.1435" fill="#13153A"/>
<circle cx="104.358" cy="250.638" r="1.1435" fill="#13153A"/>
<circle cx="118.971" cy="250.638" r="1.1435" fill="#13153A"/>
<circle cx="133.585" cy="250.638" r="1.1435" fill="#13153A"/>
<circle cx="148.198" cy="250.638" r="1.1435" fill="#13153A"/>
<circle cx="162.811" cy="250.638" r="1.1435" fill="#13153A"/>
<circle cx="177.424" cy="250.638" r="1.1435" fill="#13153A"/>
<circle cx="192.038" cy="250.638" r="1.1435" fill="#13153A"/>
<circle cx="206.651" cy="250.638" r="1.1435" fill="#13153A"/>
<circle cx="221.264" cy="250.638" r="1.1435" fill="#13153A"/>
<circle cx="2.0648" cy="262.329" r="1.1435" fill="#13153A"/>
<circle cx="16.6781" cy="262.328" r="1.1435" fill="#13153A"/>
<circle cx="31.2915" cy="262.328" r="1.1435" fill="#13153A"/>
<circle cx="45.9048" cy="262.328" r="1.1435" fill="#13153A"/>
<circle cx="60.5181" cy="262.328" r="1.1435" fill="#13153A"/>
<circle cx="75.1314" cy="262.328" r="1.1435" fill="#13153A"/>
<circle cx="89.7447" cy="262.328" r="1.1435" fill="#13153A"/>
<circle cx="104.358" cy="262.328" r="1.1435" fill="#13153A"/>
<circle cx="118.971" cy="262.328" r="1.1435" fill="#13153A"/>
<circle cx="133.585" cy="262.328" r="1.1435" fill="#13153A"/>
<circle cx="148.198" cy="262.328" r="1.1435" fill="#13153A"/>
<circle cx="162.811" cy="262.328" r="1.1435" fill="#13153A"/>
<circle cx="177.424" cy="262.328" r="1.1435" fill="#13153A"/>
<circle cx="192.038" cy="262.328" r="1.1435" fill="#13153A"/>
<circle cx="206.651" cy="262.328" r="1.1435" fill="#13153A"/>
<circle cx="221.264" cy="262.328" r="1.1435" fill="#13153A"/>
<circle cx="2.0648" cy="274.019" r="1.1435" fill="#13153A"/>
<circle cx="16.6781" cy="274.019" r="1.1435" fill="#13153A"/>
<circle cx="31.2915" cy="274.019" r="1.1435" fill="#13153A"/>
<circle cx="45.9048" cy="274.019" r="1.1435" fill="#13153A"/>
<circle cx="60.5181" cy="274.019" r="1.1435" fill="#13153A"/>
<circle cx="75.1314" cy="274.019" r="1.1435" fill="#13153A"/>
<circle cx="89.7447" cy="274.019" r="1.1435" fill="#13153A"/>
<circle cx="104.358" cy="274.019" r="1.1435" fill="#13153A"/>
<circle cx="118.971" cy="274.019" r="1.1435" fill="#13153A"/>
<circle cx="133.585" cy="274.019" r="1.1435" fill="#13153A"/>
<circle cx="148.198" cy="274.019" r="1.1435" fill="#13153A"/>
<circle cx="162.811" cy="274.019" r="1.1435" fill="#13153A"/>
<circle cx="177.424" cy="274.019" r="1.1435" fill="#13153A"/>
<circle cx="192.038" cy="274.019" r="1.1435" fill="#13153A"/>
<circle cx="206.651" cy="274.019" r="1.1435" fill="#13153A"/>
<circle cx="221.264" cy="274.019" r="1.1435" fill="#13153A"/>
<circle cx="2.0648" cy="285.71" r="1.1435" fill="#13153A"/>
<circle cx="16.6781" cy="285.71" r="1.1435" fill="#13153A"/>
<circle cx="31.2915" cy="285.71" r="1.1435" fill="#13153A"/>
<circle cx="45.9048" cy="285.71" r="1.1435" fill="#13153A"/>
<circle cx="60.5181" cy="285.71" r="1.1435" fill="#13153A"/>
<circle cx="75.1314" cy="285.71" r="1.1435" fill="#13153A"/>
<circle cx="89.7447" cy="285.71" r="1.1435" fill="#13153A"/>
<circle cx="104.358" cy="285.71" r="1.1435" fill="#13153A"/>
<circle cx="118.971" cy="285.71" r="1.1435" fill="#13153A"/>
<circle cx="133.585" cy="285.71" r="1.1435" fill="#13153A"/>
<circle cx="148.198" cy="285.71" r="1.1435" fill="#13153A"/>
<circle cx="162.811" cy="285.71" r="1.1435" fill="#13153A"/>
<circle cx="177.424" cy="285.71" r="1.1435" fill="#13153A"/>
<circle cx="192.038" cy="285.71" r="1.1435" fill="#13153A"/>
<circle cx="206.651" cy="285.71" r="1.1435" fill="#13153A"/>
<circle cx="221.264" cy="285.71" r="1.1435" fill="#13153A"/>
<circle cx="2.0648" cy="297.401" r="1.1435" fill="#13153A"/>
<circle cx="16.6781" cy="297.401" r="1.1435" fill="#13153A"/>
<circle cx="31.2915" cy="297.401" r="1.1435" fill="#13153A"/>
<circle cx="45.9048" cy="297.401" r="1.1435" fill="#13153A"/>
<circle cx="60.5181" cy="297.401" r="1.1435" fill="#13153A"/>
<circle cx="75.1314" cy="297.401" r="1.1435" fill="#13153A"/>
<circle cx="89.7447" cy="297.401" r="1.1435" fill="#13153A"/>
<circle cx="104.358" cy="297.401" r="1.1435" fill="#13153A"/>
<circle cx="118.971" cy="297.401" r="1.1435" fill="#13153A"/>
<circle cx="133.585" cy="297.401" r="1.1435" fill="#13153A"/>
<circle cx="148.198" cy="297.401" r="1.1435" fill="#13153A"/>
<circle cx="162.811" cy="297.401" r="1.1435" fill="#13153A"/>
<circle cx="177.424" cy="297.401" r="1.1435" fill="#13153A"/>
<circle cx="192.038" cy="297.401" r="1.1435" fill="#13153A"/>
<circle cx="206.651" cy="297.401" r="1.1435" fill="#13153A"/>
<circle cx="221.264" cy="297.401" r="1.1435" fill="#13153A"/>
</g>
</svg>
