<svg width="390" height="222" viewBox="0 0 390 222" fill="none" xmlns="http://www.w3.org/2000/svg">
<path d="M-20.5344 221.357C9.57777 221.357 38.1156 216.183 66.1457 204.843C91.5054 194.584 115.597 181.819 139.151 167.967C156.248 157.913 172.062 146.03 188.992 135.798C207.18 124.807 227.882 118.077 248.772 114.539C277.219 109.722 305.445 113.172 333.957 115.174C386.967 118.896 440.643 117.982 493.157 109.346C526.783 103.816 548.775 98.0613 582.229 87.9373C665.784 62.6508 746.713 30.1083 828.856 0.771484" stroke="#404430" stroke-opacity="0.5" stroke-linecap="round"/>
<path d="M-18.0814 160.348C4.14484 175.88 27.0262 195.323 53.3176 203.689C65.2832 207.496 78.1494 210.146 90.6423 211.236C111.037 213.014 131.968 210.006 151.767 205.22C172.228 200.275 188.266 191.041 205.493 179.254C226.693 164.749 248.199 150.223 270.541 137.52C305.215 117.805 342.938 104.992 381.095 93.8439C428.059 80.1233 475.768 68.5437 523.221 56.6686C590.006 39.9559 657.153 25.1665 724.379 10.377" stroke="#404430" stroke-opacity="0.5" stroke-linecap="round"/>
</svg>
