<svg width="353" height="577" viewBox="0 0 353 577" fill="none" xmlns="http://www.w3.org/2000/svg">
<g opacity="0.5">
<path fill-rule="evenodd" clip-rule="evenodd" d="M352.135 295.96C351.947 448.396 128.862 532.621 -74.1743 568.732C-229.613 596.377 -387.957 541.728 -472.398 442.605C-541.601 361.371 -472.341 267.53 -397.786 188.856C-314.573 101.048 -217.116 1.16579 -73.5007 21.6771C131.902 51.013 352.323 143.292 352.135 295.96Z" stroke="#404430"/>
<path fill-rule="evenodd" clip-rule="evenodd" d="M352.131 255.767C351.943 408.203 128.858 492.428 -74.1786 528.538C-229.618 556.184 -387.961 501.535 -472.402 402.412C-541.605 321.178 -609.689 271.425 -535.133 192.751C-451.921 104.943 -231.861 236.088 52.5393 65.1134C336.94 -105.862 352.319 103.099 352.131 255.767Z" stroke="#404430"/>
</g>
</svg>
